<svg width="60" height="60" viewBox="0 0 60 60" fill="none" xmlns="http://www.w3.org/2000/svg">
<path d="M37.0312 30.4688C36.3843 30.4688 35.8593 30.9937 35.8593 31.6406C35.8593 32.2875 36.3843 32.8125 37.0312 32.8125C37.6781 32.8125 38.2031 32.2875 38.2031 31.6406C38.2031 30.9937 37.6781 30.4688 37.0312 30.4688Z" fill="#FFDADA"/>
<path d="M11.9729 43.3343L0.254201 58.0999C0.117189 58.2725 0.0316208 58.4801 0.00732608 58.6991C-0.0169686 58.9181 0.0209954 59.1394 0.116857 59.3378C0.212636 59.5363 0.36245 59.7037 0.549094 59.8208C0.735738 59.938 0.951642 60.0001 1.17201 60.0001H58.8282C59.0485 60.0001 59.2644 59.938 59.4511 59.8208C59.6377 59.7037 59.7875 59.5363 59.8833 59.3378C59.9793 59.1395 60.0173 58.9181 59.993 58.6991C59.9687 58.4801 59.8831 58.2724 59.746 58.0999L48.0272 43.3343C47.9176 43.196 47.778 43.0843 47.6191 43.0075C47.4602 42.9307 47.2859 42.8908 47.1094 42.8908H36.8441L45.608 29.1451C47.6637 26.063 48.75 22.4686 48.75 18.7502C48.75 8.4116 40.3392 0.000244141 30.0001 0.000244141C19.661 0.000244141 11.2501 8.4116 11.2501 18.7502C11.2501 22.4686 12.3364 26.0625 14.3923 29.1451L23.1561 42.8908H12.8907C12.5333 42.8908 12.1953 43.0543 11.9729 43.3343ZM7.59762 52.6173H14.6834L10.6843 57.6564H3.59814L7.59762 52.6173ZM24.6507 45.2345L27.8633 50.2736H19.5356L23.5351 45.2345H24.6507ZM35.3499 45.2345H36.4655L40.4646 50.2736H32.1373L35.3499 45.2345ZM42.3249 52.6173L46.3239 57.6564H13.6762L17.6757 52.6173H42.3249ZM49.3163 57.6564L45.3168 52.6173H52.403L56.402 57.6564H49.3163ZM50.5427 50.2736H43.4569L39.4574 45.2345H46.5436L50.5427 50.2736ZM16.3486 27.8541C14.5466 25.1562 13.5939 22.0082 13.5939 18.7502C13.5939 9.70394 20.9538 2.34399 30.0001 2.34399C39.0464 2.34399 46.4063 9.70394 46.4063 18.7502C46.4063 22.008 45.4537 25.1561 43.6519 27.8543C43.6469 27.8611 43.6428 27.868 43.6382 27.8748C42.8687 29.0819 30.5929 48.3365 30.0001 49.2655C25.4497 42.1284 20.8993 34.9913 16.3487 27.8543L16.3486 27.8541ZM20.5428 45.2345L16.5438 50.2736H9.4575L13.457 45.2345H20.5428Z" fill="#FFDADA"/>
<path d="M29.9999 30.4688C36.4333 30.4688 41.7187 25.2589 41.7187 18.75C41.7187 12.2883 36.4617 7.03125 29.9999 7.03125C23.5382 7.03125 18.2812 12.2883 18.2812 18.75C18.2812 25.2608 23.5683 30.4688 29.9999 30.4688ZM29.9999 9.375C35.1694 9.375 39.3749 13.5805 39.3749 18.75C39.3749 23.9675 35.1356 28.125 29.9999 28.125C24.8629 28.125 20.6249 23.9675 20.6249 18.75C20.6249 13.5805 24.8304 9.375 29.9999 9.375ZM34.936 34.4678C34.3822 34.1336 33.6616 34.3122 33.3275 34.8664L28.9961 42.0524C28.6619 42.6068 28.8404 43.3269 29.3948 43.661C29.9514 43.9966 30.6706 43.8144 31.0034 43.2623L35.3347 36.0764C35.6689 35.5221 35.4904 34.802 34.936 34.4678Z" fill="#FFDADA"/>
</svg>
