<svg width="61" height="65" viewBox="0 0 61 65" fill="none" xmlns="http://www.w3.org/2000/svg">
<path d="M60.8966 17.7802L60.8967 17.7778L60.8966 17.7753V9.36482C60.8966 6.52044 58.5825 4.20646 55.7383 4.20646H50.3808V3.05538C50.3808 1.37059 49.0101 0 47.3255 0C45.6407 0 44.2701 1.37059 44.2701 3.05538V4.20646H16.7298V3.05538C16.7298 1.37059 15.359 0 13.6744 0C11.9897 0 10.619 1.37059 10.619 3.05538V4.20646H5.26157C2.41719 4.20646 0.10321 6.52057 0.10321 9.36482V59.8416C0.10321 62.686 2.41731 65 5.26157 65H55.7383C58.5826 65 60.8966 62.6859 60.8966 59.8416V21.9865L60.8967 21.9841L60.8966 21.9817V17.7802ZM46.1742 3.05525C46.1744 2.42062 46.6907 1.9043 47.3255 1.9043C47.9601 1.9043 48.4765 2.42062 48.4765 3.05538V9.36241L48.4764 9.36482V9.36609C48.4758 10.0002 47.9597 10.5159 47.3255 10.5159C46.6909 10.5159 46.1748 9.99984 46.1744 9.36546V9.36482L46.1742 9.36355V3.05525ZM12.5233 3.05538C12.5233 2.42062 13.0396 1.9043 13.6744 1.9043C14.309 1.9043 14.8255 2.42062 14.8255 3.05538V9.36241L14.8253 9.36482V9.36609C14.8247 10.0002 14.3086 10.5159 13.6744 10.5159C13.0396 10.5159 12.5233 9.99959 12.5233 9.36495V3.05538ZM58.9923 59.8416C58.9923 61.6359 57.5326 63.0957 55.7383 63.0957H5.26157C3.46721 63.0957 2.00751 61.6359 2.00751 59.8416V59.6337C2.89593 60.358 4.02873 60.7933 5.26157 60.7933H55.7383C56.9711 60.7933 58.104 60.358 58.9923 59.6337V59.8416ZM58.9923 21.0319H13.4754C13.2229 21.0319 12.9807 21.1323 12.8022 21.3108C12.6236 21.4894 12.5233 21.7316 12.5233 21.9841C12.5233 22.2366 12.6236 22.4788 12.8022 22.6574C12.9807 22.8359 13.2229 22.9362 13.4754 22.9362H58.9923V55.6348C58.9923 57.4291 57.5325 58.8889 55.7383 58.8889H5.26157C3.46721 58.8889 2.00751 57.429 2.00751 55.6348V22.9362H9.66684C9.91937 22.9362 10.1616 22.8359 10.3401 22.6574C10.5187 22.4788 10.619 22.2366 10.619 21.9841C10.619 21.7316 10.5187 21.4894 10.3401 21.3108C10.1616 21.1323 9.91937 21.0319 9.66684 21.0319H2.00751V18.7298H58.9923V21.0319ZM58.9923 16.8255H2.00751V9.36482C2.00751 7.57047 3.46721 6.11076 5.26157 6.11076H10.619V8.4128H10.5195C10.2669 8.4128 10.0248 8.51312 9.84619 8.69168C9.66763 8.87024 9.56731 9.11243 9.56731 9.36495C9.56731 9.61748 9.66763 9.85966 9.84619 10.0382C10.0248 10.2168 10.2669 10.3171 10.5195 10.3171H10.7717C11.1729 11.5369 12.3221 12.4202 13.6744 12.4202C15.0267 12.4202 16.1759 11.5367 16.577 10.3171H16.8292C17.0817 10.3171 17.3239 10.2168 17.5024 10.0382C17.681 9.85966 17.7813 9.61748 17.7813 9.36495C17.7813 9.11243 17.681 8.87024 17.5024 8.69168C17.3239 8.51312 17.0817 8.4128 16.8292 8.4128H16.7298V6.11076H44.2701V8.4128H44.1705C43.918 8.4128 43.6758 8.51312 43.4973 8.69168C43.3187 8.87024 43.2184 9.11243 43.2184 9.36495C43.2184 9.61748 43.3187 9.85966 43.4973 10.0382C43.6758 10.2168 43.918 10.3171 44.1705 10.3171H44.4228C44.824 11.5369 45.9732 12.4202 47.3255 12.4202C48.6778 12.4202 49.8269 11.5367 50.2281 10.3171H50.4802C50.7328 10.3171 50.975 10.2168 51.1535 10.0382C51.3321 9.85966 51.4324 9.61748 51.4324 9.36495C51.4324 9.11243 51.3321 8.87024 51.1535 8.69168C50.975 8.51312 50.7328 8.4128 50.4802 8.4128H50.3808V6.11076H55.7383C57.5326 6.11076 58.9923 7.5706 58.9923 9.36482V16.8255Z" fill="#FFDADA"/>
<path d="M6.41266 32.4999V40.9127C6.41266 41.1652 6.51297 41.4074 6.69154 41.586C6.8701 41.7646 7.11228 41.8649 7.36481 41.8649H15.7775C16.03 41.8649 16.2722 41.7646 16.4508 41.586C16.6293 41.4074 16.7296 41.1652 16.7296 40.9127V32.4999C16.7296 32.2474 16.6293 32.0052 16.4508 31.8266C16.2722 31.6481 16.03 31.5478 15.7775 31.5478H7.36481C7.11228 31.5478 6.8701 31.6481 6.69154 31.8266C6.51297 32.0052 6.41266 32.2474 6.41266 32.4999ZM8.31696 33.4521H14.8253V39.9606H8.31696V33.4521ZM19.9838 41.8649H28.3966C28.5217 41.8649 28.6455 41.8402 28.761 41.7924C28.8765 41.7445 28.9815 41.6744 29.0699 41.586C29.1583 41.4976 29.2284 41.3926 29.2763 41.2771C29.3241 41.1616 29.3488 41.0378 29.3488 40.9127V32.4999C29.3488 32.3749 29.3241 32.2511 29.2763 32.1356C29.2284 32.02 29.1583 31.9151 29.0699 31.8266C28.9815 31.7382 28.8765 31.6681 28.761 31.6203C28.6455 31.5724 28.5217 31.5478 28.3966 31.5478H19.9838C19.7313 31.5478 19.4891 31.6481 19.3106 31.8266C19.132 32.0052 19.0317 32.2474 19.0317 32.4999V40.9127C19.0317 41.1652 19.132 41.4074 19.3106 41.586C19.4891 41.7646 19.7313 41.8649 19.9838 41.8649ZM20.936 33.4521H27.4445V39.9606H20.936V33.4521ZM32.6031 41.8649H41.0159C41.2684 41.8649 41.5106 41.7646 41.6892 41.586C41.8677 41.4074 41.968 41.1652 41.968 40.9127V32.4999C41.968 32.2474 41.8677 32.0052 41.6892 31.8266C41.5106 31.6481 41.2684 31.5478 41.0159 31.5478H32.6031C32.3506 31.5478 32.1084 31.6481 31.9298 31.8266C31.7513 32.0052 31.6509 32.2474 31.6509 32.4999V40.9127C31.6509 41.1652 31.7513 41.4074 31.9298 41.586C32.1084 41.7646 32.3506 41.8649 32.6031 41.8649ZM33.5552 33.4521H40.0637V39.9606H33.5552V33.4521ZM45.2221 41.8649H53.6348C53.8873 41.8649 54.1295 41.7646 54.3081 41.586C54.4866 41.4074 54.5869 41.1652 54.5869 40.9127V32.4999C54.5869 32.2474 54.4866 32.0052 54.3081 31.8266C54.1295 31.6481 53.8873 31.5478 53.6348 31.5478H45.2221C44.9696 31.5478 44.7274 31.6481 44.5488 31.8266C44.3703 32.0052 44.27 32.2474 44.27 32.4999V40.9127C44.27 41.1652 44.3703 41.4074 44.5488 41.586C44.7274 41.7646 44.9696 41.8649 45.2221 41.8649ZM46.1743 33.4521H52.6826V39.9606H46.1743V33.4521ZM15.7775 44.167H7.36481C7.11228 44.167 6.8701 44.2674 6.69154 44.4459C6.51297 44.6245 6.41266 44.8667 6.41266 45.1192V53.532C6.41266 53.7845 6.51297 54.0267 6.69154 54.2053C6.8701 54.3838 7.11228 54.4841 7.36481 54.4841H15.7775C16.03 54.4841 16.2722 54.3838 16.4508 54.2053C16.6293 54.0267 16.7296 53.7845 16.7296 53.532V45.1192C16.7296 44.8667 16.6293 44.6245 16.4508 44.4459C16.2722 44.2674 16.03 44.167 15.7775 44.167ZM14.8253 52.5798H8.31696V46.0713H14.8253V52.5798ZM19.9838 54.4841H28.3966C28.5217 54.4841 28.6455 54.4595 28.761 54.4117C28.8765 54.3638 28.9815 54.2937 29.0699 54.2053C29.1583 54.1168 29.2284 54.0119 29.2763 53.8964C29.3241 53.7808 29.3488 53.657 29.3488 53.532V45.1192C29.3488 44.9942 29.3241 44.8703 29.2763 44.7548C29.2284 44.6393 29.1583 44.5343 29.0699 44.4459C28.9815 44.3575 28.8765 44.2874 28.761 44.2395C28.6455 44.1917 28.5217 44.167 28.3966 44.167H19.9838C19.7313 44.167 19.4891 44.2674 19.3106 44.4459C19.132 44.6245 19.0317 44.8667 19.0317 45.1192V53.532C19.0317 53.7845 19.132 54.0267 19.3106 54.2053C19.4891 54.3838 19.7313 54.4841 19.9838 54.4841ZM20.936 46.0713H27.4445V52.5798H20.936V46.0713ZM32.6031 54.4841H41.0159C41.2684 54.4841 41.5106 54.3838 41.6892 54.2053C41.8677 54.0267 41.968 53.7845 41.968 53.532V45.1192C41.968 44.8667 41.8677 44.6245 41.6892 44.4459C41.5106 44.2674 41.2684 44.167 41.0159 44.167H32.6031C32.3506 44.167 32.1084 44.2674 31.9298 44.4459C31.7513 44.6245 31.6509 44.8667 31.6509 45.1192V53.532C31.6509 53.7845 31.7513 54.0267 31.9298 54.2053C32.1084 54.3838 32.3506 54.4841 32.6031 54.4841ZM33.5552 46.0713H40.0637V52.5798H33.5552V46.0713ZM45.2221 54.4841H53.6348C53.8873 54.4841 54.1295 54.3838 54.3081 54.2053C54.4866 54.0267 54.5869 53.7845 54.5869 53.532V45.1192C54.5869 44.8667 54.4866 44.6245 54.3081 44.4459C54.1295 44.2674 53.8873 44.167 53.6348 44.167H45.2221C44.9696 44.167 44.7274 44.2674 44.5488 44.4459C44.3703 44.6245 44.27 44.8667 44.27 45.1192V53.532C44.27 53.7845 44.3703 54.0267 44.5488 54.2053C44.7274 54.3838 44.9696 54.4841 45.2221 54.4841ZM46.1743 46.0713H52.6826V52.5798H46.1743V46.0713ZM8.51576 28.2935C8.51576 28.546 8.61608 28.7882 8.79464 28.9667C8.97321 29.1453 9.21539 29.2456 9.46791 29.2456H13.6745C13.927 29.2456 14.1692 29.1453 14.3478 28.9667C14.5263 28.7882 14.6267 28.546 14.6267 28.2935C14.6267 28.0409 14.5263 27.7987 14.3478 27.6202C14.1692 27.4416 13.927 27.3413 13.6745 27.3413H9.46791C9.21539 27.3413 8.97321 27.4416 8.79464 27.6202C8.61608 27.7987 8.51576 28.0409 8.51576 28.2935ZM22.0869 29.2456H26.2935C26.546 29.2456 26.7882 29.1453 26.9668 28.9667C27.1454 28.7882 27.2457 28.546 27.2457 28.2935C27.2457 28.0409 27.1454 27.7987 26.9668 27.6202C26.7882 27.4416 26.546 27.3413 26.2935 27.3413H22.0869C21.8344 27.3413 21.5922 27.4416 21.4137 27.6202C21.2351 27.7987 21.1348 28.0409 21.1348 28.2935C21.1348 28.546 21.2351 28.7882 21.4137 28.9667C21.5922 29.1453 21.8344 29.2456 22.0869 29.2456ZM34.7061 29.2456H38.9127C39.1652 29.2456 39.4074 29.1453 39.5859 28.9667C39.7645 28.7882 39.8648 28.546 39.8648 28.2935C39.8648 28.0409 39.7645 27.7987 39.5859 27.6202C39.4074 27.4416 39.1652 27.3413 38.9127 27.3413H34.7061C34.4535 27.3413 34.2114 27.4416 34.0328 27.6202C33.8542 27.7987 33.7539 28.0409 33.7539 28.2935C33.7539 28.546 33.8542 28.7882 34.0328 28.9667C34.2114 29.1453 34.4535 29.2456 34.7061 29.2456ZM47.3252 29.2456H51.5318C51.7843 29.2456 52.0265 29.1453 52.2051 28.9667C52.3836 28.7882 52.484 28.546 52.484 28.2935C52.484 28.0409 52.3836 27.7987 52.2051 27.6202C52.0265 27.4416 51.7843 27.3413 51.5318 27.3413H47.3252C47.0727 27.3413 46.8305 27.4416 46.6519 27.6202C46.4734 27.7987 46.3731 28.0409 46.3731 28.2935C46.3731 28.546 46.4734 28.7882 46.6519 28.9667C46.8305 29.1453 47.0727 29.2456 47.3252 29.2456Z" fill="#FFDADA"/>
</svg>
