<svg width="70" height="48" viewBox="0 0 70 48" fill="none" xmlns="http://www.w3.org/2000/svg">
<path d="M69.2403 22.4876L64.9995 18.5539C64.7104 18.2858 64.4887 17.9532 64.3523 17.5832L61.022 8.53994C60.5457 7.26546 59.6924 6.1664 58.5756 5.38924C57.4588 4.61208 56.1318 4.19374 54.7712 4.18996H49.7253V2.77437C49.7253 2.1656 49.4835 1.58177 49.053 1.1513C48.6226 0.720837 48.0387 0.479003 47.43 0.479003H16.9352C16.4815 0.473659 16.0436 0.645483 15.7145 0.957952C15.3855 1.27042 15.1913 1.6989 15.1732 2.1523C15.169 2.37895 15.21 2.60417 15.2938 2.81479C15.3776 3.02542 15.5025 3.21723 15.6613 3.37901C15.8201 3.5408 16.0095 3.66932 16.2185 3.75705C16.4275 3.84479 16.652 3.88998 16.8786 3.89H46.3142V18.6894C46.3142 19.2982 46.556 19.882 46.9865 20.3125C47.417 20.7429 48.0008 20.9848 48.6096 20.9848H62.4718L66.5888 24.6898V38.5109H62.8563C62.4847 36.8845 61.5719 35.4325 60.2674 34.3925C58.9629 33.3525 57.344 32.7861 55.6757 32.7861C54.0074 32.7861 52.3885 33.3525 51.0841 34.3925C49.7796 35.4325 48.8668 36.8845 48.4951 38.5109H37.0098C36.6381 36.8845 35.7253 35.4325 34.4209 34.3925C33.1164 33.3525 31.4975 32.7861 29.8292 32.7861C28.1609 32.7861 26.542 33.3525 25.2375 34.3925C23.933 35.4325 23.0203 36.8845 22.6486 38.5109H16.9351C16.4813 38.5055 16.0433 38.6774 15.7143 38.99C15.3853 39.3025 15.1912 39.7311 15.1732 40.1846C15.169 40.4112 15.21 40.6364 15.2938 40.8471C15.3776 41.0577 15.5025 41.2495 15.6613 41.4113C15.8201 41.573 16.0095 41.7015 16.2185 41.7893C16.4276 41.877 16.652 41.9222 16.8786 41.9221H22.6773C23.0723 43.5203 23.9913 44.94 25.2875 45.9548C26.5837 46.9696 28.1825 47.521 29.8287 47.521C31.4749 47.521 33.0737 46.9696 34.3699 45.9548C35.6661 44.94 36.5851 43.5203 36.9801 41.9221H48.5241C48.9192 43.5203 49.8381 44.94 51.1343 45.9548C52.4305 46.9696 54.0293 47.521 55.6755 47.521C57.3217 47.521 58.9205 46.9696 60.2167 45.9548C61.5129 44.94 62.4319 43.5203 62.8269 41.9221H67.7047C68.3134 41.9221 68.8972 41.6803 69.3277 41.2499C69.7581 40.8195 70 40.2357 70 39.6269V24.1936C69.9998 23.8719 69.932 23.5538 69.8012 23.26C69.6703 22.9661 69.4792 22.703 69.2403 22.4876ZM49.7253 17.5742V7.60082H54.7712C55.4355 7.60264 56.0835 7.80689 56.6287 8.18635C57.174 8.56581 57.5907 9.10245 57.8232 9.72475L60.7305 17.5742H49.7253ZM29.8288 44.1095C29.0463 44.1095 28.2814 43.8775 27.6308 43.4428C26.9802 43.008 26.4731 42.3901 26.1737 41.6672C25.8743 40.9443 25.7959 40.1488 25.9486 39.3814C26.1012 38.614 26.478 37.909 27.0313 37.3558C27.5847 36.8025 28.2896 36.4257 29.057 36.2731C29.8245 36.1204 30.62 36.1988 31.3429 36.4982C32.0658 36.7977 32.6836 37.3048 33.1183 37.9554C33.553 38.606 33.785 39.3709 33.785 40.1534C33.7838 41.2023 33.3666 42.2079 32.6249 42.9495C31.8832 43.6912 30.8777 44.1084 29.8288 44.1095ZM55.6756 44.1095C54.8931 44.1095 54.1282 43.8775 53.4776 43.4428C52.827 43.0081 52.3199 42.3902 52.0204 41.6673C51.721 40.9444 51.6426 40.1489 51.7952 39.3815C51.9479 38.614 52.3247 37.9091 52.878 37.3558C53.4313 36.8025 54.1362 36.4257 54.9037 36.2731C55.6711 36.1204 56.4666 36.1988 57.1895 36.4982C57.9124 36.7977 58.5303 37.3048 58.965 37.9554C59.3997 38.606 59.6317 39.3709 59.6317 40.1534C59.6305 41.2023 59.2133 42.2078 58.4717 42.9495C57.73 43.6911 56.7245 44.1083 55.6756 44.1095Z" fill="black"/>
<path d="M9.59534 13.4315H28.9375C29.3899 13.4315 29.8237 13.2518 30.1436 12.932C30.4635 12.6121 30.6432 12.1782 30.6432 11.7258C30.6432 11.2735 30.4635 10.8396 30.1436 10.5197C29.8237 10.1998 29.3899 10.0201 28.9375 10.0201H9.59534C9.14296 10.0201 8.70911 10.1998 8.38923 10.5197C8.06935 10.8396 7.88964 11.2735 7.88964 11.7258C7.88964 12.1782 8.06935 12.6121 8.38923 12.932C8.70911 13.2518 9.14296 13.4315 9.59534 13.4315ZM30.6432 21.2006C30.6432 20.7482 30.4635 20.3144 30.1436 19.9945C29.8237 19.6746 29.3899 19.4949 28.9375 19.4949H1.70572C1.48044 19.4929 1.257 19.5355 1.0483 19.6203C0.839589 19.7051 0.649751 19.8304 0.489741 19.989C0.329732 20.1476 0.202722 20.3363 0.116045 20.5443C0.0293681 20.7522 -0.0152588 20.9752 -0.0152588 21.2005C-0.0152588 21.4258 0.0293681 21.6489 0.116045 21.8568C0.202722 22.0647 0.329732 22.2534 0.489741 22.412C0.649751 22.5706 0.839589 22.6959 1.0483 22.7807C1.257 22.8655 1.48044 22.9082 1.70572 22.9062H28.9375C29.3898 22.9062 29.8237 22.7265 30.1436 22.4066C30.4634 22.0868 30.6432 21.6529 30.6432 21.2006ZM19.8431 30.6753C19.8431 30.4514 19.799 30.2296 19.7133 30.0226C19.6276 29.8157 19.5019 29.6277 19.3435 29.4693C19.1852 29.3109 18.9972 29.1853 18.7902 29.0996C18.5833 29.0139 18.3615 28.9698 18.1375 28.9698H6.28251C5.83279 28.9738 5.40287 29.1553 5.08628 29.4747C4.7697 29.7941 4.59208 30.2257 4.59208 30.6754C4.59208 31.1251 4.7697 31.5567 5.08628 31.8761C5.40287 32.1955 5.83279 32.377 6.28251 32.381H18.1375C18.5899 32.381 19.0237 32.2013 19.3436 31.8814C19.6634 31.5615 19.8431 31.1277 19.8431 30.6753Z" fill="black"/>
</svg>
