<svg width="28" height="36" viewBox="0 0 28 36" fill="none" xmlns="http://www.w3.org/2000/svg">
<path d="M22.032 23.2011C22.2206 23.1259 22.4172 23.0685 22.6209 23.0356C24.7492 22.6909 26.216 20.6766 25.8919 18.5555C25.7447 17.8244 25.9823 16.8214 26.6863 16.1087C28.1976 14.5784 28.1964 12.0895 26.6726 10.5499C26.048 9.91842 25.7551 9.01772 25.8913 8.12475C26.216 5.99625 24.752 3.98229 22.616 3.63347C21.7376 3.48982 20.9696 2.93112 20.5625 2.13947C19.5753 0.218884 17.2048 -0.553218 15.271 0.422931C14.4754 0.825329 13.524 0.824837 12.7252 0.421243C10.7969 -0.551671 8.42527 0.21797 7.43696 2.13905C7.02992 2.93098 6.26189 3.48968 5.37244 3.63495C3.24746 3.98215 1.78341 5.99611 2.11029 8.13973C2.24431 9.01765 1.95153 9.91835 1.3159 10.5602C-0.197012 12.0894 -0.198137 14.5783 1.32905 16.1248C1.95258 16.756 2.2448 17.6562 2.10917 18.545C1.78341 20.6762 3.25076 22.691 5.37947 23.0357C5.58268 23.0685 5.77906 23.1259 5.96736 23.2008L0.869348 31.7111C0.607434 32.1476 1.01757 32.6817 1.50554 32.5411L5.62683 31.3713L6.53991 35.5572C6.64798 36.0555 7.31138 36.1629 7.57168 35.7263L13.3868 26.0194C13.7906 25.9303 14.2091 25.9303 14.6129 26.0194L20.428 35.7263C20.6862 36.1601 21.3511 36.0577 21.4597 35.5572L22.3728 31.3713L26.4941 32.5411C26.9818 32.6807 27.3926 32.1481 27.1303 31.7111L22.032 23.2011ZM7.33648 33.9302L6.59813 30.547C6.52936 30.2303 6.20782 30.0372 5.89493 30.1256L2.56409 31.071L6.90877 23.8182C7.11907 24.0257 7.30048 24.2641 7.43794 24.532C8.26032 26.1333 10.042 26.9332 11.7318 26.5928L7.33648 33.9302ZM12.2197 25.2481C10.843 25.9452 9.14436 25.3934 8.43898 24.0183C7.86868 22.907 6.79142 22.1244 5.5587 21.9247C4.037 21.6786 2.98878 20.2385 3.22278 18.7024C3.41009 17.4765 3.00193 16.2174 2.11416 15.3181C1.0336 14.224 1.03409 12.4449 2.12682 11.3409C3.00031 10.4579 3.41016 9.19786 3.22004 7.95488C2.98814 6.43345 4.03475 4.99352 5.56475 4.74356C6.79423 4.54275 7.86818 3.7613 8.43793 2.65352C9.14253 1.28271 10.8367 0.728157 12.2214 1.42706C13.3343 1.98956 14.6644 1.98907 15.7818 1.42538C17.1607 0.729352 18.856 1.2806 19.5614 2.65374C20.1311 3.76123 21.2051 4.54275 22.4457 4.74511C23.9647 4.99345 25.0111 6.43331 24.7771 7.96992C24.5893 9.19779 24.9991 10.4577 25.8835 11.3517C26.9652 12.4447 26.9658 14.2238 25.8692 15.334C24.3606 16.8622 24.7924 18.8209 24.7782 18.7146C25.0106 20.2382 23.9619 21.6784 22.4407 21.9248C21.2073 22.1243 20.1311 22.9068 19.5604 24.0183C18.8556 25.393 17.1602 25.9443 15.7781 25.2474C14.6644 24.6853 13.3343 24.6853 12.2197 25.2481ZM22.1044 30.1256C21.7896 30.0379 21.4698 30.2311 21.4012 30.547L20.6629 33.9302L16.2668 26.5916C16.5239 26.6434 16.7828 26.674 17.0404 26.674C18.4759 26.674 19.8642 25.89 20.5613 24.532C20.6987 24.2641 20.8802 24.0258 21.0905 23.8184L25.4352 31.0711L22.1044 30.1256Z" fill="#FFEFEF"/>
<path d="M22.2792 13.3341C22.2792 8.76882 18.5649 5.05484 13.9997 5.05484C9.43453 5.05484 5.72028 8.76882 5.72028 13.3341C5.72028 17.9026 9.43453 21.6196 13.9997 21.6196C18.5649 21.6196 22.2792 17.9026 22.2792 13.3341ZM13.9997 20.4945C10.0548 20.4945 6.84535 17.2823 6.84535 13.3341C6.84535 9.3894 10.0547 6.18005 13.9997 6.18005C17.9447 6.18005 21.1541 9.3894 21.1541 13.3341C21.154 17.2823 17.9447 20.4945 13.9997 20.4945Z" fill="#FFEFEF"/>
<path d="M16.39 10.8446L12.5977 14.637L11.6094 13.6484C11.5571 13.5961 11.4951 13.5547 11.4269 13.5264C11.3586 13.4981 11.2855 13.4836 11.2116 13.4836C11.1377 13.4836 11.0646 13.4981 10.9963 13.5264C10.9281 13.5547 10.8661 13.5961 10.8138 13.6484C10.5941 13.8678 10.5941 14.2241 10.8138 14.4439L12.1998 15.8302C12.2521 15.8824 12.3141 15.9238 12.3823 15.9521C12.4506 15.9804 12.5237 15.9949 12.5976 15.9949C12.6715 15.9949 12.7446 15.9804 12.8129 15.9521C12.8811 15.9238 12.9431 15.8824 12.9954 15.8302L17.1854 11.6402C17.2376 11.5879 17.279 11.5259 17.3073 11.4577C17.3356 11.3894 17.3501 11.3163 17.3501 11.2424C17.3501 11.1685 17.3356 11.0954 17.3073 11.0271C17.279 10.9589 17.2376 10.8969 17.1854 10.8446C17.1331 10.7924 17.0711 10.7509 17.0029 10.7227C16.9347 10.6944 16.8615 10.6798 16.7877 10.6798C16.7138 10.6798 16.6407 10.6944 16.5724 10.7227C16.5042 10.7509 16.4422 10.7924 16.39 10.8446Z" fill="#FFEFEF"/>
</svg>
