<svg width="67" height="66" viewBox="0 0 67 66" fill="none" xmlns="http://www.w3.org/2000/svg">
<path d="M55.1637 14.5946C56.1687 13.662 56.7987 12.3335 56.7987 10.8604C56.7987 8.04568 54.5008 5.75566 51.6764 5.75566C48.8518 5.75566 46.5539 8.04568 46.5539 10.8604C46.5539 12.3335 47.1841 13.662 48.189 14.5946C44.886 15.9622 42.5569 19.2099 42.5569 22.9904C42.5569 23.2639 42.6659 23.5262 42.8599 23.7196C43.054 23.913 43.3172 24.0217 43.5917 24.0217H59.761C60.0355 24.0217 60.2987 23.913 60.4928 23.7196C60.6868 23.5262 60.7959 23.2639 60.7959 22.9904C60.7959 19.2099 58.4667 15.9622 55.1637 14.5946ZM48.6236 10.8604C48.6236 9.18289 49.9931 7.81816 51.6765 7.81816C53.3598 7.81816 54.7292 9.18289 54.7292 10.8604C54.7292 12.5378 53.3598 13.9025 51.6765 13.9025C49.9931 13.9025 48.6236 12.5378 48.6236 10.8604ZM44.7024 21.9593C45.2043 18.5724 48.1405 15.9652 51.6765 15.9652C55.2124 15.9652 58.1485 18.5726 58.6504 21.9593H44.7024ZM23.1742 17.706L19.6356 16.383C19.0479 16.163 18.4086 16.232 17.8811 16.5722L16.7481 17.3035C15.9793 16.8123 15.2661 16.2395 14.621 15.5952L14.6196 15.5938C13.9731 14.9509 13.3983 14.2402 12.9053 13.4741L13.6395 12.3446C13.9806 11.8192 14.0497 11.1821 13.8291 10.5966L12.5013 7.06999C12.292 6.51402 11.8491 6.08798 11.2862 5.90107C10.723 5.71416 10.1124 5.79047 9.61028 6.11003L7.75807 7.28939C6.53853 8.06579 5.96757 9.47371 6.30363 10.8762C7.05375 14.0088 8.68566 16.8826 11.0153 19.1792C13.3279 21.5085 16.2117 23.1349 19.3548 23.8823C19.6228 23.9461 19.891 23.9771 20.155 23.9771C21.2773 23.9771 22.3235 23.4169 22.9541 22.4332L24.1379 20.587C24.4586 20.0866 24.535 19.4779 24.3475 18.9169C24.2552 18.6404 24.1019 18.3882 23.8989 18.1786C23.6959 17.9691 23.4482 17.8076 23.1742 17.706ZM21.21 21.3226C20.9078 21.7941 20.3805 22.0061 19.8351 21.8763C17.0681 21.2182 14.527 19.784 12.4785 17.7209C10.4163 15.6875 8.97709 13.1551 8.31662 10.3974C8.18636 9.85359 8.39928 9.32856 8.87245 9.02743L10.611 7.92052L11.872 11.27L11.13 12.4116C10.7094 13.059 10.705 13.8661 11.1185 14.5177C11.7016 15.4354 12.3852 16.2857 13.1567 17.0529C13.9267 17.8218 14.7799 18.503 15.7009 19.0841C16.3553 19.4963 17.1649 19.4918 17.8142 19.0726L18.9598 18.3332L22.3209 19.59L21.21 21.3226ZM59.1143 36.2227H44.2386C40.1017 36.2227 36.7361 39.5767 36.7361 43.6992V58.5234C36.7361 62.646 40.1017 66 44.2386 66H59.1143C63.2511 66 66.6168 62.646 66.6168 58.5234V43.6991C66.6168 39.5765 63.2511 36.2227 59.1143 36.2227ZM64.5471 58.5234C64.5471 61.5088 62.11 63.9375 59.1143 63.9375H44.2386C41.2429 63.9375 38.8057 61.5088 38.8057 58.5234V43.6991C38.8057 40.7137 41.2429 38.285 44.2386 38.285H59.1143C62.11 38.285 64.5471 40.7137 64.5471 43.6991V58.5234ZM59.1143 0H44.2386C40.1017 0 36.7361 3.35401 36.7361 7.47656V22.3009C36.7361 26.4235 40.1017 29.7775 44.2386 29.7775H59.1143C63.2511 29.7775 66.6168 26.4235 66.6168 22.3009V7.47656C66.6168 3.35401 63.2511 0 59.1143 0ZM64.5471 22.3009C64.5471 25.2863 62.11 27.715 59.1143 27.715H44.2386C41.2429 27.715 38.8057 25.2863 38.8057 22.3009V7.47656C38.8057 4.49122 41.2429 2.0625 44.2386 2.0625H59.1143C62.11 2.0625 64.5471 4.49122 64.5471 7.47656V22.3009ZM22.7662 36.2227H7.89053C3.75369 36.2227 0.388062 39.5767 0.388062 43.6992V58.5234C0.388062 62.646 3.75369 66 7.89053 66H22.7662C26.9031 66 30.2687 62.646 30.2687 58.5234V43.6991C30.2687 39.5765 26.9031 36.2227 22.7662 36.2227ZM28.1991 58.5234C28.1991 61.5088 25.7619 63.9375 22.7662 63.9375H7.89053C4.89485 63.9375 2.45771 61.5088 2.45771 58.5234V43.6991C2.45771 40.7137 4.89485 38.285 7.89053 38.285H22.7662C25.7619 38.285 28.1991 40.7137 28.1991 43.6991V58.5234ZM22.7662 0H7.89053C3.75369 0 0.388062 3.35401 0.388062 7.47656V22.3009C0.388062 26.4235 3.75369 29.7775 7.89053 29.7775H22.7662C26.9031 29.7775 30.2687 26.4235 30.2687 22.3009V7.47656C30.2687 3.35401 26.9031 0 22.7662 0ZM28.1991 22.3009C28.1991 25.2863 25.7619 27.715 22.7662 27.715H7.89053C4.89485 27.715 2.45771 25.2863 2.45771 22.3009V7.47656C2.45771 4.49122 4.89485 2.0625 7.89053 2.0625H22.7662C25.7619 2.0625 28.1991 4.49122 28.1991 7.47656V22.3009ZM51.6765 41.564C46.648 41.564 42.5571 45.6408 42.5571 50.6519C42.5571 52.4601 43.0807 54.1865 44.0765 55.6765L43.086 59.3603C43.0391 59.5351 43.0391 59.7192 43.0861 59.894C43.1332 60.0689 43.2255 60.2283 43.3539 60.3562C43.4823 60.4842 43.6423 60.5763 43.8177 60.6232C43.9931 60.6701 44.1779 60.6701 44.3533 60.6233L49.072 59.3634C49.9173 59.6137 50.7946 59.7405 51.6765 59.7398C56.705 59.7398 60.7959 55.663 60.7959 50.6519C60.7959 45.6408 56.705 41.564 51.6765 41.564ZM51.6765 57.6773C50.9061 57.6773 50.1488 57.5543 49.4261 57.312C49.233 57.2473 49.0251 57.2408 48.8283 57.2932L45.549 58.1688L46.2011 55.7437C46.2416 55.5929 46.2472 55.4349 46.2176 55.2815C46.1879 55.1282 46.1237 54.9836 46.0298 54.8586C45.112 53.6372 44.6268 52.1825 44.6268 50.6518C44.6268 46.778 47.7892 43.6264 51.6765 43.6264C55.5638 43.6264 58.7262 46.778 58.7262 50.6518C58.7262 54.5255 55.5638 57.6773 51.6765 57.6773ZM52.9053 50.4701C52.9053 50.7949 52.7759 51.1064 52.5454 51.3361C52.315 51.5657 52.0024 51.6948 51.6765 51.6948C51.3506 51.6948 51.038 51.5657 50.8076 51.3361C50.5771 51.1064 50.4476 50.7949 50.4476 50.4701C50.4476 50.1454 50.5771 49.8339 50.8076 49.6042C51.038 49.3746 51.3506 49.2455 51.6765 49.2455C52.0024 49.2455 52.315 49.3746 52.5454 49.6042C52.7759 49.8339 52.9053 50.1454 52.9053 50.4701ZM48.4912 50.4701C48.4912 50.7949 48.3617 51.1064 48.1313 51.3361C47.9008 51.5657 47.5882 51.6948 47.2623 51.6948C46.9364 51.6948 46.6238 51.5657 46.3934 51.3361C46.1629 51.1064 46.0335 50.7949 46.0335 50.4701C46.0335 50.1454 46.1629 49.8339 46.3934 49.6042C46.6238 49.3746 46.9364 49.2455 47.2623 49.2455C47.5882 49.2455 47.9008 49.3746 48.1313 49.6042C48.3617 49.8339 48.4912 50.1454 48.4912 50.4701ZM56.0907 49.2455C56.7692 49.2455 57.3195 49.7939 57.3195 50.4701C57.3195 51.1464 56.7692 51.6948 56.0907 51.6948C55.7647 51.6948 55.4522 51.5657 55.2217 51.3361C54.9913 51.1064 54.8618 50.7949 54.8618 50.4701C54.8618 50.1454 54.9913 49.8339 55.2217 49.6042C55.4522 49.3746 55.7647 49.2455 56.0907 49.2455ZM21.7829 44.7198H8.87387C7.40455 44.7198 6.20894 45.911 6.20894 47.3754V54.8473C6.20894 56.3115 7.40442 57.5029 8.87387 57.5029H21.783C23.2524 57.5029 24.4478 56.3115 24.4478 54.8473V47.3754C24.4477 45.911 23.2524 44.7198 21.7829 44.7198ZM15.3283 49.8727L10.6673 46.7823H19.9893L15.3283 49.8727ZM12.295 50.3388L8.27859 54.0913V47.6758L12.295 50.3388ZM14.0649 51.5124L14.755 51.9698C14.9249 52.0824 15.1243 52.1424 15.3283 52.1424C15.5323 52.1424 15.7317 52.0824 15.9016 51.9698L16.5917 51.5124L20.7961 55.4404H9.86071L14.0649 51.5124ZM18.3616 50.3388L22.3781 47.6758V54.0911L18.3616 50.3388Z" fill="#FFDADA"/>
</svg>
