<svg width="19" height="19" viewBox="0 0 19 19" fill="none" xmlns="http://www.w3.org/2000/svg">
<path d="M12.7979 11.5165L14.5422 8.24575C15.1334 7.13913 15.3334 5.86944 15.1105 4.63794C14.8877 3.40643 14.2546 2.28357 13.3118 1.44732C12.2666 0.515731 10.9084 0 9.5 0C8.09163 0 6.73337 0.515731 5.68824 1.44732C4.74539 2.28357 4.11235 3.40643 3.88945 4.63794C3.66656 5.86944 3.86656 7.13913 4.45776 8.24575L6.20214 11.5165C2.82527 11.9854 0 13.1816 0 15.0226C0 17.4457 4.89461 18.7533 9.5 18.7533C14.1054 18.7533 19 17.4457 19 15.0226C19 13.1817 16.1747 11.9855 12.7979 11.5165ZM6.49514 2.33226C7.31885 1.59757 8.38968 1.19089 9.5 1.19108C10.6103 1.19092 11.6811 1.59753 12.5049 2.33211C13.2481 2.99129 13.7471 3.87639 13.9228 4.84713C14.0985 5.81787 13.9408 6.81871 13.4748 7.69101L10.0911 14.0357C10.0353 14.1427 9.95051 14.2323 9.84613 14.2945C9.74175 14.3566 9.62191 14.389 9.5 14.3878C9.37813 14.3889 9.25834 14.3566 9.15402 14.2944C9.04969 14.2323 8.96492 14.1427 8.90919 14.0357L5.52523 7.69116C5.05921 6.81883 4.90155 5.81798 5.07725 4.84721C5.25294 3.87645 5.75193 2.99147 6.49514 2.33226ZM9.5 17.5629C4.36156 17.5629 1.20635 16.0833 1.20635 15.0226C1.20635 14.1634 3.27871 13.0306 6.79642 12.6307L7.84157 14.5902C8.00017 14.8887 8.2386 15.1386 8.53097 15.3127C8.82334 15.4869 9.15848 15.5788 9.5 15.5782C10.1979 15.5782 10.8333 15.1997 11.1584 14.5902L12.2034 12.6307C15.7214 13.0306 17.7937 14.1634 17.7937 15.0226C17.7937 16.0833 14.6384 17.5629 9.5 17.5629Z" fill="black"/>
<path d="M12.0685 5.61593C12.0685 4.20675 10.9068 3.06036 9.47874 3.06036C8.05072 3.06036 6.88901 4.20675 6.88901 5.61593C6.88901 7.02511 8.05087 8.1715 9.47889 8.1715C10.9069 8.1715 12.0685 7.02511 12.0685 5.61593ZM8.09536 5.61593C8.09536 4.86313 8.71587 4.2508 9.47874 4.2508C10.2416 4.2508 10.8621 4.86313 10.8621 5.61593C10.8621 6.36874 10.2415 6.98107 9.47874 6.98107C8.71602 6.98107 8.09536 6.36859 8.09536 5.61593Z" fill="black"/>
</svg>
