<svg width="43" height="44" viewBox="0 0 43 44" fill="none" xmlns="http://www.w3.org/2000/svg">
<path d="M40.2153 8.62771C40.1517 3.78384 31.7696 0 21.0762 0C10.3828 0 2.00068 3.78384 1.93714 8.62482L0.00945702 35.325C-0.0339941 35.9073 0.072728 36.4908 0.320471 37.0255C0.568213 37.5602 0.949583 38.0302 1.43187 38.3952C5.58735 41.5196 12.9314 43.3844 21.0762 43.3844C29.221 43.3844 36.5651 41.5196 40.7213 38.3952C41.2035 38.03 41.5847 37.5598 41.8323 37.025C42.0799 36.4902 42.1865 35.9066 42.143 35.3243L40.2153 8.62771ZM21.0762 1.44615C30.6205 1.44615 38.6841 4.75782 38.6841 8.67688C38.6841 12.191 31.7726 14.4615 21.0762 14.4615C20.316 14.4615 19.5635 14.4492 18.8255 14.426C18.6208 14.4202 18.417 14.453 18.2258 14.5224C18.0347 14.5918 17.8602 14.6964 17.7123 14.8302C17.5647 14.9646 17.4475 15.1258 17.3678 15.3041C17.288 15.4825 17.2474 15.6742 17.2484 15.8678V30.2881C17.2566 30.4791 17.1906 30.6663 17.0626 30.8145C16.9347 30.9626 16.7538 31.0614 16.554 31.0922C16.448 31.1001 16.3414 31.0873 16.2408 31.0547C16.1402 31.022 16.0477 30.9702 15.9693 30.9024C15.8908 30.8346 15.8279 30.7522 15.7846 30.6605C15.7412 30.5687 15.7183 30.4695 15.7173 30.3691V20.9691C15.7173 20.3938 15.4753 19.8421 15.0446 19.4353C14.6139 19.0284 14.0297 18.7999 13.4206 18.7999C12.8115 18.7999 12.2273 19.0284 11.7966 19.4353C11.3659 19.8421 11.1239 20.3938 11.1239 20.9691V26.6655C11.1312 26.8469 11.0727 27.0252 10.9579 27.1708C10.8432 27.3164 10.6791 27.4205 10.4931 27.4659C10.3825 27.4849 10.2688 27.4803 10.1604 27.4526C10.0519 27.4248 9.95137 27.3745 9.86607 27.3054C9.78077 27.2378 9.71212 27.1534 9.66491 27.0581C9.61771 26.9628 9.59309 26.8589 9.59277 26.7537V14.3299C9.59227 14.0245 9.48941 13.727 9.29893 13.4802C9.10846 13.2334 8.84015 13.0499 8.53246 12.956C6.22429 12.2358 3.46827 10.9076 3.46827 8.67688C3.46827 4.75782 11.5319 1.44615 21.0762 1.44615ZM39.7674 37.2643C35.9319 40.1472 28.7693 41.9383 21.0762 41.9383C13.3831 41.9383 6.22429 40.1472 2.385 37.2643C2.09671 37.045 1.86901 36.763 1.72141 36.4423C1.57382 36.1217 1.51071 35.7721 1.53752 35.4234L3.25085 11.7066C4.58999 12.9559 6.24656 13.8592 8.06164 14.3299V26.7537C8.06242 27.0695 8.136 27.3813 8.27728 27.6675C8.41855 27.9537 8.62413 28.2073 8.87971 28.4109C9.13529 28.6144 9.43475 28.763 9.75726 28.8462C10.0798 28.9293 10.4176 28.9452 10.7472 28.8926C11.2904 28.79 11.7785 28.5112 12.127 28.1044C12.4754 27.6977 12.6622 27.1887 12.655 26.6655V20.9691C12.655 20.7774 12.7357 20.5934 12.8792 20.4578C13.0228 20.3222 13.2175 20.2461 13.4206 20.2461C13.6236 20.2461 13.8183 20.3222 13.9619 20.4578C14.1055 20.5934 14.1861 20.7774 14.1861 20.9691V30.3691C14.1816 30.9418 14.4235 31.4913 14.8552 31.8933C15.067 32.0982 15.3202 32.2609 15.5998 32.3717C15.8794 32.4825 16.1796 32.5391 16.4828 32.5383C16.5487 32.5383 16.6153 32.5383 16.6811 32.5303C17.2635 32.47 17.8011 32.2068 18.1891 31.7922C18.5771 31.3776 18.7876 30.8414 18.7795 30.2881L18.7749 15.8715C19.529 15.8953 20.2984 15.9076 21.0762 15.9076C30.057 15.9076 36.3247 14.3892 38.9023 11.7232L40.6149 35.4234C40.6417 35.7721 40.5786 36.1217 40.431 36.4423C40.2834 36.763 40.0557 37.045 39.7674 37.2643Z" fill="#FFDADA"/>
<path d="M8.30584 37.2383C7.42271 36.9581 6.55657 36.6322 5.71135 36.2622C5.52719 36.1812 5.31654 36.1727 5.12573 36.2385C4.93493 36.3042 4.7796 36.4389 4.69391 36.6128C4.60823 36.7868 4.59921 36.9857 4.66885 37.166C4.73848 37.3462 4.88106 37.4929 5.06521 37.5738C5.96199 37.9647 6.88076 38.3089 7.81741 38.6049C7.91329 38.6376 8.01513 38.6519 8.11695 38.647C8.21876 38.642 8.3185 38.6179 8.41032 38.5761C8.50214 38.5342 8.58418 38.4755 8.65163 38.4032C8.71908 38.331 8.77058 38.2468 8.80311 38.1556C8.83564 38.0643 8.84854 37.9678 8.84106 37.8718C8.83358 37.7758 8.80587 37.6821 8.75955 37.5963C8.71323 37.5106 8.64924 37.4344 8.57132 37.3723C8.49341 37.3102 8.40315 37.2634 8.30584 37.2347V37.2383ZM19.5703 39.0236C17.2976 38.9609 15.0335 38.7303 12.7989 38.3338C12.6992 38.3135 12.5962 38.3123 12.496 38.3302C12.3957 38.3482 12.3003 38.3848 12.2153 38.438C12.1303 38.4912 12.0574 38.56 12.0009 38.6402C11.9444 38.7204 11.9054 38.8105 11.8863 38.9051C11.8671 38.9997 11.8682 39.097 11.8895 39.1913C11.9107 39.2855 11.9517 39.3748 12.0099 39.4538C12.0682 39.5329 12.1426 39.6002 12.2288 39.6517C12.315 39.7032 12.4112 39.738 12.5118 39.7539C14.8246 40.1646 17.1688 40.4046 19.5213 40.469H19.5451C19.7481 40.4721 19.9441 40.3988 20.09 40.2654C20.2359 40.132 20.3196 39.9493 20.3229 39.7575C20.3261 39.5657 20.2486 39.3806 20.1073 39.2428C19.966 39.105 19.7726 39.0259 19.5696 39.0228L19.5703 39.0236Z" fill="#FFDADA"/>
</svg>
