<svg width="35" height="35" viewBox="0 0 35 35" fill="none" xmlns="http://www.w3.org/2000/svg">
<path d="M33.9052 17.2668C32.7349 16.3024 30.8852 16.2196 29.6712 17.5225L26.6575 20.7578C26.2678 19.5055 25.0983 18.5936 23.7196 18.5936H18.3414C17.9333 18.5936 17.7967 18.4378 17.0878 17.8916C14.385 15.5354 10.3254 15.543 7.63082 17.9142L5.654 19.6545C4.7654 19.1842 3.72777 19.1726 2.83432 19.619L0.566973 20.7523C0.0604302 21.0059 -0.14458 21.6217 0.108282 22.1283L6.26028 34.4322C6.5139 34.9388 7.12975 35.1438 7.63629 34.8909L9.90363 33.7569C11.0212 33.1985 11.6432 32.0582 11.6029 30.8976H23.7195C25.9664 30.8976 28.1134 29.8245 29.4614 28.0267L34.3837 21.4633C35.3386 20.1911 35.1875 18.3257 33.9052 17.2668ZM8.98625 31.9229L7.63622 32.5982L2.40092 22.1283L3.75163 21.453C4.25817 21.2 4.87334 21.4044 5.12695 21.9117L9.44494 30.5476C9.69787 31.0541 9.49279 31.6693 8.98625 31.9229ZM32.7431 20.2328L27.8209 26.7963C26.8578 28.0807 25.3246 28.8469 23.7196 28.8469H10.8873L7.04498 21.1618L8.98557 19.4536C10.9166 17.7549 13.8286 17.7549 15.7596 19.4536C16.897 20.455 17.6045 20.6443 18.3414 20.6443H23.7195C24.2849 20.6443 24.7449 21.1044 24.7449 21.6697C24.7449 22.2349 24.2848 22.695 23.7195 22.695H18.4829C17.9169 22.695 17.4575 23.1544 17.4575 23.7203C17.4575 24.2863 17.9169 24.7456 18.4829 24.7456H24.4066C25.2576 24.7456 26.0779 24.3888 26.6575 23.7661L31.1717 18.9204C31.5846 18.4774 32.2175 18.5143 32.6058 18.8541C33.0118 19.2095 33.0556 19.8172 32.7431 20.2328ZM21.5595 6.99783C22.2615 6.26167 22.6942 5.26643 22.6942 4.17062C22.6942 1.91353 20.8705 0.000976562 18.5929 0.000976562C16.3324 0.000976562 14.4233 1.91012 14.4233 4.17062C14.4233 5.23286 14.8396 6.23562 15.5956 7.00603C13.7206 8.05733 12.3726 10.0752 12.3726 12.4416V13.467C12.3726 14.0329 12.832 14.4923 13.398 14.4923H23.7196C24.2856 14.4923 24.7449 14.0329 24.7449 13.467V12.4416C24.7449 10.1217 23.4688 8.07237 21.5595 6.99783ZM18.5929 2.05169C19.7044 2.05169 20.6436 3.02232 20.6436 4.17069C20.6436 5.30129 19.7235 6.22134 18.5929 6.22134C17.4446 6.22134 16.4739 5.28215 16.4739 4.17069C16.4739 3.04215 17.4644 2.05169 18.5929 2.05169ZM14.4233 12.4416C14.4233 10.1811 16.3324 8.27198 18.5929 8.27198C20.8541 8.27198 22.6942 10.1422 22.6942 12.4416H14.4233Z" fill="#FFEFEF"/>
</svg>
