<svg width="40" height="40" viewBox="0 0 40 40" fill="none" xmlns="http://www.w3.org/2000/svg">
<path d="M29.9999 0H10.0004C4.50105 0 0.000671387 4.50038 0.000671387 9.99975V30.0002C0.000671387 35.4982 4.50105 40 10.0004 40H29.9999C35.4993 40 39.9997 35.4982 39.9997 30.0002V9.99975C39.9997 4.50038 35.4993 0 29.9999 0ZM36.6663 30.0002C36.6663 33.6752 33.6769 36.6666 29.9999 36.6666H10.0004C6.32503 36.6666 3.33409 33.6752 3.33409 30.0002V9.99975C3.33409 6.32387 6.32503 3.33341 10.0004 3.33341H29.9999C33.6769 3.33341 36.6663 6.32387 36.6663 9.99975V30.0002Z" fill="#602121"/>
<path d="M30.8347 11.6661C32.2154 11.6661 33.3346 10.5469 33.3346 9.1662C33.3346 7.78552 32.2154 6.66626 30.8347 6.66626C29.454 6.66626 28.3347 7.78552 28.3347 9.1662C28.3347 10.5469 29.454 11.6661 30.8347 11.6661Z" fill="#602121"/>
<path d="M20 9.99976C14.4761 9.99976 10.0002 14.4761 10.0002 19.9995C10.0002 25.5209 14.4761 30.0002 20 30.0002C25.5223 30.0002 29.9998 25.5209 29.9998 19.9995C29.9998 14.4761 25.5223 9.99976 20 9.99976ZM20 26.6668C16.3185 26.6668 13.3337 23.6819 13.3337 19.9995C13.3337 16.3171 16.3185 13.3332 20 13.3332C23.6815 13.3332 26.6663 16.3171 26.6663 19.9995C26.6663 23.6819 23.6815 26.6668 20 26.6668Z" fill="#602121"/>
</svg>
