<svg width="36" height="34" viewBox="0 0 36 34" fill="none" xmlns="http://www.w3.org/2000/svg">
<path d="M13.1754 10.1144C13.5562 10.5566 13.5636 11.3097 13.1917 11.7592L12.4071 12.7064C12.0268 13.1654 11.8997 13.6976 12.0572 14.1678C12.2147 14.6375 12.6382 14.9851 13.2182 15.1224L14.4157 15.4042C14.9833 15.5381 15.4322 16.1427 15.3956 16.7249L15.318 17.9529C15.2871 18.4428 15.4237 18.8765 15.7033 19.1746C16.1004 19.5971 16.7507 19.7 17.3936 19.43L18.5282 18.9541C19.0468 18.7381 19.7989 18.9772 20.097 19.4463L20.7562 20.4864C21.0724 20.9848 21.5347 21.2705 22.0258 21.2705C22.5264 21.2705 22.9922 20.9752 23.3044 20.4611L23.9428 19.4092C24.2325 18.9305 24.9733 18.6774 25.5015 18.8861L26.6456 19.3389C27.2891 19.5948 27.9326 19.4829 28.3219 19.0599C28.6014 18.7556 28.7331 18.3157 28.692 17.8212L28.5902 16.595C28.5418 16.0134 28.9783 15.4002 29.5431 15.2551L30.735 14.9497C31.3121 14.8017 31.7284 14.4457 31.8769 13.9726C32.0254 13.4996 31.887 12.9703 31.4983 12.5186L30.6951 11.5871C30.3142 11.1449 30.3069 10.3917 30.6787 9.94231L31.4634 8.9945C31.8437 8.53606 31.9714 8.00337 31.8133 7.53369C31.6558 7.06344 31.2322 6.71581 30.6523 6.57912L29.4547 6.29731C28.8872 6.16344 28.4383 5.55875 28.4749 4.97656L28.5525 3.74863C28.5834 3.25869 28.4467 2.82444 28.1672 2.52687C27.7706 2.10387 27.1204 2.00094 26.4769 2.2715L25.3423 2.74737C24.8231 2.96337 24.0716 2.72487 23.7735 2.25462L23.1148 1.21569C22.7987 0.71675 22.3363 0.431 21.8452 0.431C21.3446 0.431 20.8789 0.726312 20.5667 1.24044L19.9282 2.29231C19.638 2.771 18.8949 3.02356 18.3696 2.81544L17.2249 2.36206C16.5814 2.10725 15.9384 2.21806 15.5486 2.64162C15.2691 2.94537 15.1374 3.38581 15.1785 3.88025L15.2803 5.1065C15.3287 5.68813 14.8922 6.30125 14.3269 6.44581L13.1349 6.75181C12.5578 6.89975 12.1416 7.25581 11.9931 7.72887C11.8446 8.20137 11.9829 8.73125 12.3716 9.18294L13.1754 10.1144ZM13.0348 8.05512C13.0669 7.95219 13.2064 7.85994 13.4066 7.80875L14.598 7.50275C15.6836 7.22487 16.4616 6.1325 16.3682 5.01538L16.2664 3.78912C16.2512 3.60519 16.2821 3.45612 16.3519 3.38019C16.3671 3.36387 16.4132 3.31381 16.5397 3.31381C16.6219 3.31381 16.7197 3.33519 16.8227 3.37625L17.9668 3.82963C18.2256 3.93256 18.504 3.98431 18.7942 3.98431C19.6346 3.98431 20.4457 3.54275 20.8609 2.85762L21.4993 1.80575C21.7142 1.45081 21.9712 1.44969 22.1923 1.799L22.851 2.83794C23.2695 3.49831 24.0705 3.92469 24.8923 3.92469C25.1989 3.92469 25.4919 3.86731 25.7636 3.75312L26.8987 3.27725C26.9903 3.23581 27.0891 3.21269 27.1896 3.20919C27.3105 3.20919 27.3561 3.25756 27.3707 3.27331C27.441 3.34869 27.4747 3.49606 27.4629 3.67944L27.3853 4.90737C27.3144 6.02562 28.1137 7.10225 29.2039 7.35988L30.4014 7.64169C30.6028 7.68894 30.7434 7.77837 30.7777 7.88019C30.8121 7.98256 30.7536 8.13838 30.6214 8.29813L29.8367 9.24594C29.1223 10.1088 29.1358 11.4498 29.8671 12.2992L30.6703 13.2307C30.8053 13.3876 30.8666 13.5423 30.8346 13.6458C30.8025 13.7487 30.663 13.841 30.4627 13.8922L29.2708 14.1976C28.1857 14.4761 27.4078 15.5684 27.5012 16.685L27.603 17.9112C27.6182 18.0952 27.5872 18.2442 27.5175 18.3202C27.5023 18.3365 27.4567 18.3866 27.3302 18.3866C27.2481 18.3866 27.1502 18.3646 27.0467 18.3236L25.9026 17.8708C25.6391 17.7671 25.3583 17.7146 25.0751 17.7161C24.2347 17.7161 23.4236 18.1582 23.0091 18.8428L22.3706 19.8946C22.1557 20.2479 21.8992 20.2496 21.6776 19.9014L21.0184 18.8613C20.5999 18.2021 19.7989 17.7757 18.9771 17.7757C18.6705 17.7757 18.3774 17.8331 18.1057 17.9472L16.9706 18.4231C16.879 18.4643 16.7802 18.4874 16.6798 18.4912C16.5589 18.4912 16.5133 18.4428 16.4987 18.4265C16.4284 18.3517 16.3946 18.2037 16.4064 18.0209L16.4841 16.793C16.5549 15.6747 15.7556 14.5981 14.6655 14.3405L13.4679 14.0587C13.2666 14.0114 13.1254 13.922 13.0911 13.8196C13.0567 13.7172 13.1152 13.5614 13.2469 13.4017L14.0321 12.4544C14.7465 11.5916 14.733 10.2506 14.0017 9.40119L13.1985 8.46969C13.0641 8.31275 13.0027 8.15862 13.0348 8.05512Z" fill="#FFEFEF"/>
<path d="M21.9352 16.9151C25.2793 16.9151 28.0001 14.1948 28.0001 10.8502C28.0001 7.50614 25.2793 4.78589 21.9352 4.78589C18.5912 4.78589 15.8704 7.50614 15.8704 10.8502C15.8698 14.1948 18.5906 16.9151 21.9352 16.9151ZM21.9352 5.87714C24.6774 5.87714 26.9089 8.10801 26.9089 10.8502C26.9089 13.5924 24.6774 15.8238 21.9352 15.8238C19.1931 15.8238 16.9616 13.5924 16.9616 10.8502C16.9616 8.10801 19.1925 5.87714 21.9352 5.87714ZM34.9521 22.4551C34.6191 22.0141 33.6538 21.3926 32.3792 22.1986L27.9742 25.0685L25.3271 26.1738C25.0273 24.8272 23.5547 24.5465 22.7992 24.5881H17.8807C15.8529 23.4255 11.3006 21.9219 11.0717 21.8476C8.30925 21.1282 6.78262 22.5266 6.33093 23.0407L5.139 23.3191L5.12718 23.2578C5.06306 22.9243 4.91175 22.6824 4.67718 22.539C4.43925 22.3938 4.17937 22.3618 3.74512 22.4535C3.71812 22.4585 1.08562 23.0092 1.08562 23.0092C0.944221 23.0387 0.820289 23.1231 0.740995 23.2438C0.661701 23.3645 0.633517 23.5118 0.662621 23.6533L2.61843 33.1336C2.63324 33.2046 2.66194 33.272 2.70287 33.3318C2.7438 33.3917 2.79616 33.4428 2.85693 33.4824C2.91807 33.5214 2.98632 33.548 3.05776 33.5605C3.12919 33.5731 3.20241 33.5714 3.27318 33.5555L5.92762 32.9553C6.42375 32.8428 6.87037 32.2426 6.72862 31.6177L6.7095 31.5187C7.812 31.4259 9.171 31.3848 9.58331 31.5429C9.6042 31.5511 9.62563 31.5578 9.64743 31.5631L16.4683 33.2563C17.2417 33.4143 17.8712 33.4858 18.4416 33.4858C19.4316 33.4858 20.2444 33.2698 21.3266 32.9171C24.4164 31.9091 27.5698 30.2396 27.7026 30.1687C27.7288 30.1548 27.7538 30.1388 27.7774 30.1209L34.4002 25.0663C34.4863 25.0055 35.2429 24.452 35.3379 23.633C35.3739 23.3332 35.3306 22.8793 34.9521 22.4551ZM5.63456 31.9074C5.42025 31.953 4.90331 32.0688 3.57525 32.3686L1.84162 23.9655L3.96393 23.5222C4.00106 23.5149 4.03368 23.5081 4.0635 23.5036L5.17612 29.3182L5.52318 31.1362L5.526 31.1441C5.60756 31.5699 5.65931 31.8376 5.66268 31.8517C5.66662 31.868 5.6475 31.8939 5.63456 31.9074ZM34.2551 23.5053C34.2236 23.7911 33.8867 24.0926 33.7562 24.1865L27.1524 29.2265C26.7817 29.4211 23.8072 30.9613 20.9886 31.8804C19.3995 32.399 18.5664 32.5706 16.6866 32.1881L16.686 32.1931C16.3468 32.1031 15.0733 31.7865 9.93881 30.5118C9.18393 30.2469 7.42556 30.3588 6.5025 30.4421L6.25106 29.1303L5.34656 24.3913L6.76068 24.0611C6.8898 24.0301 7.00354 23.9538 7.08131 23.8462C7.12856 23.7804 8.27268 22.2425 10.7634 22.8939C10.8118 22.9091 15.6015 24.4908 17.4516 25.6012C17.5363 25.6521 17.6334 25.6789 17.7322 25.6788L22.8307 25.6777C22.887 25.6743 24.1869 25.608 24.2809 26.5265C24.2809 26.5282 24.2854 26.6531 24.2392 26.8072C24.2321 26.8261 24.2257 26.8452 24.2201 26.8646C24.1851 26.9652 24.1302 27.0578 24.0587 27.1368C23.8596 27.3545 23.5198 27.4676 23.0557 27.4738H16.3395C16.1948 27.4738 16.056 27.5312 15.9537 27.6336C15.8514 27.7359 15.7939 27.8747 15.7939 28.0194C15.7939 28.1641 15.8514 28.3029 15.9537 28.4052C16.056 28.5075 16.1948 28.565 16.3395 28.565H23.0625C23.8472 28.5555 24.4536 28.3231 24.8647 27.8737C24.9981 27.7275 25.0971 27.5733 25.1702 27.422L28.4417 26.0563C28.4721 26.0433 28.5019 26.0281 28.5294 26.0101L32.9698 23.1172C33.6499 22.6875 33.9981 23.0115 34.1094 23.1459C34.2568 23.3135 34.263 23.4311 34.2551 23.5053Z" fill="#FFEFEF"/>
<path d="M14.5412 27.4828H14.1463C14.0016 27.4828 13.8628 27.5402 13.7605 27.6426C13.6582 27.7449 13.6007 27.8837 13.6007 28.0284C13.6007 28.1731 13.6582 28.3119 13.7605 28.4142C13.8628 28.5165 14.0016 28.574 14.1463 28.574H14.5412C14.6859 28.574 14.8247 28.5165 14.927 28.4142C15.0293 28.3119 15.0868 28.1731 15.0868 28.0284C15.0868 27.8837 15.0293 27.7449 14.927 27.6426C14.8247 27.5402 14.6859 27.4828 14.5412 27.4828ZM20.1527 11.951C20.1595 11.9628 20.1724 11.9668 20.1797 11.978C20.2114 12.0235 20.2513 12.0628 20.2973 12.0939C20.3141 12.1051 20.3282 12.1181 20.3468 12.1271C20.4084 12.1597 20.4768 12.1776 20.5465 12.1794L20.5532 12.1811L20.5571 12.1805H23.2825C23.2864 12.1805 23.2903 12.1783 23.2943 12.1783C23.3016 12.1788 23.3089 12.1811 23.3162 12.1811C23.3584 12.1811 23.3966 12.1608 23.4371 12.1496C23.4467 12.1462 23.4574 12.1456 23.467 12.1417C23.5671 12.1063 23.6593 12.05 23.7167 11.9516L25.002 9.75838C25.0463 9.68291 25.0684 9.59644 25.0656 9.50897C25.0628 9.42151 25.0353 9.33662 24.9863 9.26412C24.9373 9.19163 24.8687 9.13449 24.7886 9.09932C24.7085 9.06415 24.62 9.05238 24.5335 9.06538L23.1109 9.27913L22.3285 8.38981C22.2794 8.33561 22.218 8.29398 22.1495 8.26844C22.0809 8.24289 22.0073 8.23417 21.9347 8.243C21.8621 8.23417 21.7885 8.24289 21.7199 8.26844C21.6514 8.29398 21.59 8.33561 21.541 8.38981L20.7585 9.27913L19.336 9.06538C19.2494 9.05238 19.161 9.06415 19.0808 9.09932C19.0007 9.13449 18.9322 9.19163 18.8831 9.26412C18.8341 9.33662 18.8066 9.42151 18.8039 9.50897C18.8011 9.59644 18.8231 9.68291 18.8674 9.75838L20.1527 11.951ZM20.8716 10.2331C20.9483 10.2443 21.0265 10.2363 21.0993 10.2097C21.1721 10.1831 21.2371 10.1387 21.2884 10.0807L21.9347 9.34606L22.581 10.0807C22.6856 10.1988 22.8437 10.2551 22.9978 10.2331L23.7111 10.1263L23.0507 11.2535H20.8181L20.1578 10.1263L20.8716 10.2331ZM23.283 12.8476H20.5526C20.4899 12.8445 20.4271 12.8542 20.3682 12.8761C20.3092 12.898 20.2554 12.9317 20.2098 12.975C20.1643 13.0184 20.1281 13.0705 20.1033 13.1283C20.0785 13.1861 20.0657 13.2483 20.0657 13.3111C20.0657 13.374 20.0785 13.4362 20.1033 13.494C20.1281 13.5518 20.1643 13.6039 20.2098 13.6472C20.2554 13.6906 20.3092 13.7242 20.3682 13.7461C20.4271 13.768 20.4899 13.7777 20.5526 13.7746H23.283C23.3458 13.7777 23.4086 13.768 23.4675 13.7461C23.5264 13.7242 23.5803 13.6906 23.6258 13.6472C23.6714 13.6039 23.7076 13.5518 23.7324 13.494C23.7572 13.4362 23.7699 13.374 23.7699 13.3111C23.7699 13.2483 23.7572 13.1861 23.7324 13.1283C23.7076 13.0705 23.6714 13.0184 23.6258 12.975C23.5803 12.9317 23.5264 12.898 23.4675 12.8761C23.4086 12.8542 23.3458 12.8445 23.283 12.8476Z" fill="#FFEFEF"/>
</svg>
