<svg width="158" height="32" viewBox="0 0 158 32" fill="none" xmlns="http://www.w3.org/2000/svg">
<path d="M0 16C0 7.16344 7.16344 0 16 0H142C150.837 0 158 7.16344 158 16C158 24.8366 150.837 32 142 32H16C7.16345 32 0 24.8366 0 16Z" fill="#FFDADA"/>
<path d="M22.108 13.2727H24.75L25.858 16.8182H25.9432L28.2273 13.2727H30.8693L26.6761 19.2557L26.2159 22H23.8636L24.3239 19.2557L22.108 13.2727ZM36.8065 13.2727H39.1758L38.2468 18.8636C38.1388 19.5284 37.886 20.1037 37.4883 20.5895C37.0934 21.0724 36.5906 21.446 35.9798 21.7102C35.369 21.9716 34.69 22.1023 33.9428 22.1023C33.19 22.1023 32.5536 21.9716 32.0337 21.7102C31.5138 21.446 31.136 21.0724 30.9002 20.5895C30.6673 20.1037 30.6048 19.5284 30.7127 18.8636L31.6417 13.2727H34.011L33.1161 18.6591C33.0735 18.929 33.0948 19.169 33.18 19.3793C33.2653 19.5895 33.4031 19.7557 33.5934 19.8778C33.7837 19.9972 34.0138 20.0568 34.2837 20.0568C34.5565 20.0568 34.8079 19.9972 35.038 19.8778C35.271 19.7557 35.4641 19.5895 35.6175 19.3793C35.771 19.169 35.869 18.929 35.9116 18.6591L36.8065 13.2727ZM40.3018 13.2727H43.2507L44.4609 18.2159H44.5632L47.4098 13.2727H50.3587L48.9098 22H46.5916L47.4268 16.9545H47.3587L44.5973 21.9318H43.1996L42.0916 16.9205H42.0234L41.1712 22H38.853L40.3018 13.2727ZM51.4815 13.2727H54.4304L55.6406 18.2159H55.7429L58.5895 13.2727H61.5384L60.0895 22H57.7713L58.6065 16.9545H58.5384L55.777 21.9318H54.3793L53.2713 16.9205H53.2031L52.3509 22H50.0327L51.4815 13.2727ZM62.3033 13.2727H64.9453L66.0533 16.8182H66.1385L68.4226 13.2727H71.0646L66.8714 19.2557L66.4112 22H64.0589L64.5192 19.2557L62.3033 13.2727ZM75.6083 22.1364C74.9833 22.1364 74.4648 22.0256 74.0529 21.804C73.641 21.5824 73.3441 21.2855 73.1623 20.9134C72.9833 20.5412 72.9293 20.1307 73.0004 19.6818C73.0543 19.3523 73.1637 19.0625 73.3285 18.8125C73.4933 18.5597 73.7063 18.3295 73.9677 18.1222C74.229 17.9119 74.5259 17.7045 74.8583 17.5L77.0401 16.2727C77.2589 16.1477 77.4137 16.017 77.5046 15.8807C77.5955 15.7443 77.6509 15.625 77.6708 15.5227C77.6992 15.3864 77.6708 15.2642 77.5856 15.1562C77.5032 15.0483 77.3498 14.9943 77.1254 14.9943C76.9975 14.9943 76.8796 15.0185 76.7717 15.0668C76.6637 15.1122 76.5742 15.179 76.5032 15.267C76.435 15.3551 76.3924 15.4631 76.3754 15.5909C76.3555 15.7614 76.3796 15.9347 76.4478 16.1108C76.5188 16.2841 76.6197 16.4716 76.7504 16.6733C76.8839 16.8722 77.0316 17.0966 77.1935 17.3466L80.6538 22H78.3015L75.3867 18.25C75.2418 18.0625 75.0856 17.8352 74.918 17.5682C74.7504 17.3011 74.6183 16.9986 74.5217 16.6605C74.4279 16.3224 74.4151 15.9545 74.4833 15.5568C74.56 15.1136 74.7347 14.7088 75.0075 14.3423C75.2802 13.9759 75.6254 13.6832 76.043 13.4645C76.4606 13.2457 76.9237 13.1364 77.4322 13.1364C77.9237 13.1364 78.3299 13.2372 78.6509 13.4389C78.9748 13.6406 79.2049 13.9091 79.3413 14.2443C79.4805 14.5795 79.5146 14.9489 79.4435 15.3523C79.3782 15.7614 79.2163 16.142 78.9577 16.4943C78.7021 16.8437 78.364 17.1506 77.9435 17.4148L75.9151 18.6932C75.7646 18.7898 75.6282 18.902 75.506 19.0298C75.3839 19.1548 75.3043 19.3153 75.2674 19.5114C75.2475 19.6761 75.266 19.8168 75.3228 19.9332C75.3825 20.0497 75.4762 20.1392 75.604 20.2017C75.7347 20.2642 75.8952 20.2955 76.0856 20.2955C76.3754 20.2955 76.6765 20.2259 76.989 20.0866C77.3043 19.9446 77.6026 19.7472 77.8839 19.4943C78.168 19.2386 78.4109 18.9375 78.6126 18.5909C78.8143 18.2415 78.9492 17.8608 79.0174 17.4489H80.8754C80.7987 17.9545 80.668 18.4418 80.4833 18.9105C80.3015 19.3793 80.0614 19.8082 79.7631 20.1974C79.4677 20.5866 79.1055 20.9148 78.6765 21.1818C78.5487 21.2415 78.4237 21.2983 78.3015 21.3523C78.1793 21.4062 78.0543 21.4631 77.9265 21.5227C77.5458 21.7443 77.1566 21.902 76.7589 21.9957C76.3612 22.0895 75.9776 22.1364 75.6083 22.1364ZM84.4229 15.1818L84.7468 13.2727H92.332L92.0082 15.1818H89.3832L88.2582 22H85.9229L87.0479 15.1818H84.4229ZM100.518 17.7898C100.359 18.7386 100.044 19.5341 99.5721 20.1761C99.1005 20.8182 98.5281 21.3026 97.8548 21.6293C97.1815 21.956 96.4613 22.1193 95.6942 22.1193C94.8761 22.1193 94.1658 21.9418 93.5636 21.5866C92.9613 21.2315 92.5224 20.7116 92.2468 20.027C91.9712 19.3423 91.9158 18.5057 92.0806 17.517C92.234 16.5682 92.5465 15.7699 93.0181 15.1222C93.4897 14.4744 94.065 13.9844 94.744 13.652C95.4229 13.3196 96.1488 13.1534 96.9215 13.1534C97.734 13.1534 98.44 13.3324 99.0394 13.6903C99.6417 14.0483 100.079 14.5724 100.352 15.2628C100.627 15.9531 100.683 16.7955 100.518 17.7898ZM98.1317 17.517C98.2113 17.017 98.217 16.5966 98.1488 16.2557C98.0806 15.9119 97.9371 15.6534 97.7184 15.4801C97.4996 15.304 97.2056 15.2159 96.8363 15.2159C96.4158 15.2159 96.0437 15.3182 95.7198 15.5227C95.396 15.7273 95.1275 16.0213 94.9144 16.4048C94.7013 16.7884 94.5522 17.25 94.467 17.7898C94.3761 18.2955 94.3675 18.7159 94.4414 19.0511C94.5181 19.3864 94.6687 19.6378 94.8931 19.8054C95.1204 19.973 95.4158 20.0568 95.7795 20.0568C96.1942 20.0568 96.5607 19.9574 96.8789 19.7585C97.1999 19.5597 97.4656 19.2713 97.6758 18.8935C97.8888 18.5156 98.0408 18.0568 98.1317 17.517ZM102.893 13.2727H105.177L104.717 16.017C104.671 16.2898 104.683 16.5128 104.751 16.6861C104.819 16.8594 104.96 16.9872 105.173 17.0696C105.386 17.152 105.688 17.1932 106.08 17.1932C106.154 17.1932 106.271 17.1918 106.43 17.1889C106.592 17.1832 106.766 17.1761 106.954 17.1676C107.144 17.1562 107.319 17.1435 107.478 17.1293C107.637 17.1122 107.751 17.0937 107.819 17.0739L107.529 18.8636C107.45 18.8892 107.322 18.9119 107.146 18.9318C106.969 18.9489 106.783 18.9645 106.587 18.9787C106.391 18.9901 106.217 19 106.063 19.0085C105.91 19.0142 105.813 19.017 105.773 19.017C105.006 19.017 104.353 18.9077 103.813 18.6889C103.273 18.4702 102.88 18.1392 102.633 17.696C102.386 17.2528 102.319 16.6932 102.433 16.017L102.893 13.2727ZM108.006 13.2727H110.308L108.859 22H106.558L108.006 13.2727ZM115.868 22L113.779 18.4716H113.447L112.859 22H110.49L111.939 13.2727H114.308L113.762 16.5625H114.069L117.12 13.2727H120.103L116.089 17.4659L118.842 22H115.868ZM121.745 22H119.188L123.518 13.2727H126.756L128.188 22H125.631L124.779 15.6761H124.711L121.745 22ZM121.847 18.5568H126.654L126.347 20.3295H121.54L121.847 18.5568Z" fill="black"/>
</svg>
