<svg width="80" height="78" viewBox="0 0 80 78" fill="none" xmlns="http://www.w3.org/2000/svg">
<path d="M24.0964 45.7308C23.7536 45.61 23.4122 45.4854 23.0722 45.357V39.8752C23.935 40.0817 24.4492 40.518 24.495 40.5578C24.7227 40.7607 25.0211 40.8656 25.3257 40.85C25.6302 40.8343 25.9163 40.6993 26.122 40.4742C26.3277 40.2491 26.4365 39.952 26.4247 39.6473C26.4129 39.3426 26.2815 39.0548 26.0591 38.8463C25.9931 38.7855 24.8856 37.7875 23.0722 37.5155V36.396C23.0672 36.0918 22.9429 35.8018 22.726 35.5885C22.5092 35.3752 22.2172 35.2556 21.913 35.2556C21.6088 35.2556 21.3168 35.3752 21.0999 35.5885C20.8831 35.8018 20.7587 36.0918 20.7537 36.396V37.6046C20.5771 37.6429 20.4019 37.688 20.2287 37.7399C18.5705 38.2394 17.3314 39.6586 16.995 41.4436C16.6884 43.0711 17.2097 44.6405 18.3558 45.5394C18.963 46.0156 19.7187 46.4519 20.7539 46.9127V53.8635C19.8584 53.7975 19.2381 53.5789 18.2217 52.9139C18.0943 52.8302 17.9517 52.7723 17.8019 52.7438C17.6521 52.7152 17.4982 52.7165 17.3489 52.7475C17.1997 52.7786 17.058 52.8387 16.932 52.9246C16.806 53.0104 16.6982 53.1203 16.6147 53.2479C16.5313 53.3755 16.4738 53.5183 16.4456 53.6681C16.4174 53.8179 16.419 53.9719 16.4504 54.1211C16.4818 54.2703 16.5423 54.4118 16.6284 54.5376C16.7146 54.6634 16.8247 54.7709 16.9525 54.8541C18.4344 55.8235 19.4469 56.1125 20.7539 56.1861V57.4397C20.7589 57.7439 20.8832 58.0339 21.1001 58.2472C21.3169 58.4605 21.6089 58.58 21.9131 58.58C22.2173 58.58 22.5093 58.4605 22.7262 58.2472C22.943 58.0339 23.0673 57.7439 23.0723 57.4397V56.0939C25.6731 55.5836 27.1923 53.4391 27.5291 51.4358C27.9617 48.8603 26.6145 46.621 24.0964 45.7308ZM19.7862 43.7152C19.3241 43.3525 19.1273 42.6467 19.2731 41.873C19.4037 41.1797 19.8614 40.3467 20.7536 40.0099V44.3335C20.3895 44.136 20.0603 43.93 19.7862 43.7152ZM25.2423 51.0516C25.0639 52.1128 24.3248 53.2377 23.072 53.686V47.8267C23.1556 47.8567 23.2375 47.8864 23.3236 47.9169C25.4658 48.6739 25.3339 50.5075 25.2423 51.0516Z" fill="black"/>
<path d="M79.9361 44.2391C79.8396 43.7951 79.6323 43.3828 79.3335 43.0406C79.0348 42.6983 78.6543 42.4371 78.2275 42.2814L74.9095 41.0619C74.7664 41.0081 74.614 40.9832 74.4612 40.9886C74.3083 40.994 74.1581 41.0296 74.0191 41.0933C73.8801 41.157 73.755 41.2476 73.6512 41.3598C73.5473 41.472 73.4667 41.6037 73.4139 41.7473C73.3612 41.8908 73.3373 42.0434 73.3438 42.1961C73.3503 42.3489 73.3869 42.4989 73.4516 42.6375C73.5163 42.776 73.6077 42.9004 73.7207 43.0035C73.8337 43.1066 73.9659 43.1863 74.1098 43.238L77.4278 44.4575C77.6005 44.521 77.6548 44.66 77.6717 44.7372C77.6888 44.8144 77.6978 44.9633 77.5675 45.0935L47.9495 74.7116C47.8191 74.842 47.67 74.8327 47.5931 74.8158C47.5159 74.7988 47.377 74.7446 47.3136 74.5716L43.1512 63.2467C43.0162 62.8786 42.8026 62.5442 42.5253 62.267C42.248 61.9897 41.9136 61.7761 41.5455 61.6411L30.2208 57.4789C30.048 57.4153 29.9937 57.2764 29.9767 57.1992C29.9597 57.1221 29.9506 56.9731 30.0808 56.843L59.6991 27.2249C59.8294 27.0946 59.978 27.1038 60.0553 27.1206C60.1325 27.1377 60.2714 27.1919 60.3348 27.3647L64.497 38.6894C64.632 39.0576 64.8456 39.392 65.123 39.6693C65.4003 39.9467 65.7347 40.1602 66.103 40.2952L68.9833 41.3538C69.5842 41.5749 70.2505 41.2666 70.4713 40.6656C70.692 40.0647 70.3841 39.3985 69.783 39.1777L66.9025 38.1189C66.85 38.0997 66.8022 38.0692 66.7627 38.0296C66.7231 37.99 66.6927 37.9423 66.6734 37.8897L62.5112 26.565C62.3556 26.1382 62.0944 25.7578 61.7522 25.459C61.4099 25.1603 60.9977 24.953 60.5537 24.8564C60.1103 24.7577 59.6491 24.7728 59.213 24.9003C58.7769 25.0278 58.3802 25.2635 58.0597 25.5855L56.9384 26.7067V15.2058C56.9384 13.7144 55.725 12.501 54.2336 12.501H42.4267C43.5069 10.401 43.1694 7.75439 41.4122 5.99736C40.6891 5.27212 39.7801 4.76022 38.785 4.51789C37.7899 4.27557 36.7473 4.3122 35.7717 4.62377C35.0169 2.43408 32.9369 0.855957 30.4941 0.855957C28.0514 0.855957 25.9716 2.43377 25.2166 4.62314C23.2622 3.99705 21.0828 4.49033 19.5761 5.99721C18.5217 7.05143 17.9411 8.45314 17.9411 9.94424C17.9396 10.8336 18.1517 11.7104 18.5595 12.5008H17.587C17.2829 12.5058 16.9929 12.6301 16.7796 12.847C16.5662 13.0638 16.4467 13.3558 16.4467 13.66C16.4467 13.9642 16.5662 14.2562 16.7796 14.4731C16.9929 14.6899 17.2829 14.8142 17.587 14.8192H25.848V25.791C24.561 25.556 23.2554 25.4375 21.9472 25.4367C19.5309 25.4367 17.2572 25.8133 15.0812 26.538L6.36844 26.5383V15.2056C6.36852 15.1032 6.40926 15.005 6.4817 14.9325C6.55415 14.8601 6.65239 14.8193 6.75484 14.8192H12.04C12.3441 14.8142 12.6341 14.6899 12.8475 14.4731C13.0608 14.2562 13.1803 13.9642 13.1803 13.66C13.1803 13.3558 13.0608 13.0638 12.8475 12.847C12.6341 12.6301 12.3441 12.5058 12.04 12.5008H6.75453C5.26312 12.5008 4.04969 13.7142 4.04969 15.2056V34.6719C4.04969 34.6789 4.05062 34.6858 4.05078 34.693C1.50078 38.2783 0 42.6591 0 47.3838C0 52.0978 1.47844 56.5938 4.27547 60.3856C4.38321 60.5319 4.52389 60.6508 4.6861 60.7327C4.84832 60.8145 5.02753 60.857 5.20922 60.8567C5.42368 60.8566 5.63391 60.797 5.81651 60.6845C5.99911 60.5721 6.14692 60.4111 6.24351 60.2197C6.34009 60.0282 6.38165 59.8137 6.36357 59.6C6.34549 59.3863 6.26848 59.1818 6.14109 59.0092C3.64016 55.6189 2.31828 51.5988 2.31828 47.3836C2.31828 36.5605 11.1236 27.7553 21.9467 27.7553C31.0186 27.7553 38.8172 33.8672 40.9967 42.6481L39.0342 44.6106C38.4472 40.966 36.71 37.6092 34.0159 34.9858C30.7628 31.8183 26.4766 30.0738 21.9467 30.0738C12.402 30.0738 4.63672 37.8389 4.63672 47.3836C4.63672 56.9283 12.4019 64.6936 21.9467 64.6936C25.8861 64.6936 29.7017 63.3453 32.7673 60.885L35.252 61.7981C31.64 65.1292 26.8806 67.0121 21.9467 67.0121C17.4686 67.0121 13.0853 65.4575 9.60437 62.635C9.36503 62.4467 9.06121 62.3602 8.75858 62.3941C8.45595 62.428 8.1788 62.5796 7.98701 62.8161C7.79523 63.0526 7.70421 63.3551 7.73363 63.6582C7.76304 63.9613 7.91053 64.2407 8.14422 64.436C12.0367 67.5924 16.9386 69.3306 21.9467 69.3306C27.8559 69.3306 33.5405 66.9167 37.6642 62.6847L40.7456 63.8172C40.7982 63.8365 40.8459 63.867 40.8855 63.9066C40.9251 63.9462 40.9556 63.994 40.9748 64.0466L45.137 75.3713C45.2927 75.798 45.5538 76.1785 45.896 76.4772C46.2382 76.776 46.6505 76.9833 47.0944 77.0799C47.2897 77.1228 47.4862 77.1439 47.6809 77.1439C48.0355 77.1439 48.3865 77.0737 48.7139 76.9376C49.0412 76.8015 49.3385 76.6021 49.5886 76.3508L79.2069 46.7328C79.5289 46.4124 79.7646 46.0157 79.8921 45.5797C80.0196 45.1437 80.0347 44.6825 79.9361 44.2391ZM6.36812 31.9413V28.8571H10.1941C8.80806 29.7397 7.52482 30.7742 6.36812 31.9413ZM54.6198 15.2058V26.5385H35.1402V14.8194H54.2334C54.3359 14.8195 54.4341 14.8603 54.5065 14.9327C54.579 15.0051 54.6197 15.1034 54.6198 15.2058ZM39.7728 7.63674C41.0452 8.90924 41.0452 10.9797 39.773 12.2519C39.7222 12.3028 39.6236 12.3872 39.4525 12.501H33.8045C35.4872 9.3358 35.9234 7.78705 36.0361 7.00893C36.6466 6.71072 37.3351 6.61092 38.0051 6.7235C38.6752 6.83607 39.2933 7.15539 39.7728 7.63674ZM30.4939 3.17439C32.2934 3.17439 33.7575 4.63846 33.7575 6.43783C33.7575 6.77283 33.5669 8.19346 31.1639 12.5008H29.8241C27.4216 8.19455 27.2305 6.77346 27.2305 6.43783C27.2305 4.63846 28.6944 3.17439 30.4939 3.17439ZM21.2153 12.2521C20.5989 11.6356 20.2594 10.8161 20.2594 9.9444C20.2594 9.07268 20.5989 8.25315 21.2153 7.63674C22.2116 6.64049 23.7097 6.40143 24.9519 7.00955C25.0647 7.78799 25.5006 9.33596 27.1833 12.501H21.5356C21.3645 12.3874 21.2663 12.303 21.2153 12.2521ZM28.1661 14.8194H32.8217V26.5385H28.8078C28.8027 26.5385 28.7978 26.5391 28.7927 26.5392C28.5848 26.4708 28.3758 26.4064 28.1661 26.3442V14.8194ZM35.6636 30.2625C35.0344 29.758 34.3777 29.2888 33.6964 28.8571H54.62V29.0252L50.1325 33.5127H38.938C37.9633 32.3177 36.8658 31.2283 35.6636 30.2625ZM40.5936 35.8311H47.8139L42.8736 40.7714C42.3214 39.0365 41.5555 37.377 40.5936 35.8311ZM21.9469 62.3753C13.6805 62.3753 6.95547 55.6502 6.95547 47.3839C6.95547 39.1177 13.6806 32.3925 21.9469 32.3925C29.9048 32.3925 36.5744 38.8 36.9228 46.7225L28.4416 55.2038C27.7858 55.8596 27.5131 56.7919 27.7125 57.6977C27.9119 58.6035 28.5506 59.3352 29.4211 59.6552L30.1519 59.9238C27.714 61.5226 24.8623 62.3747 21.9469 62.3753Z" fill="black"/>
<path d="M56.8408 60.7344C56.9867 60.7344 57.1355 60.7066 57.2789 60.6478C57.4198 60.5902 57.548 60.5055 57.6562 60.3983C57.7644 60.2912 57.8504 60.1638 57.9093 60.0234C57.9682 59.883 57.9988 59.7324 57.9995 59.5801C58.0002 59.4279 57.9709 59.277 57.9133 59.1361L51.2386 42.8074C51.181 42.6664 51.0962 42.5382 50.9891 42.43C50.882 42.3219 50.7546 42.2359 50.6142 42.1769C50.4738 42.118 50.3232 42.0874 50.1709 42.0867C50.0187 42.086 49.8678 42.1153 49.7269 42.173C49.586 42.2306 49.4577 42.3154 49.3496 42.4225C49.2414 42.5296 49.1554 42.657 49.0965 42.7974C49.0376 42.9378 49.0069 43.0884 49.0063 43.2407C49.0056 43.3929 49.0349 43.5438 49.0925 43.6847L55.7672 60.0134C55.8543 60.2266 56.003 60.4091 56.1942 60.5375C56.3854 60.6659 56.6105 60.7344 56.8408 60.7344ZM43.0588 47.6414C42.2466 48.4536 41.8494 49.5689 41.9403 50.7819C42.0264 51.9294 42.5464 53.0341 43.4044 53.892C44.2625 54.7502 45.367 55.2702 46.5147 55.3561C46.6284 55.3647 46.7414 55.3689 46.8533 55.3689C47.9342 55.3689 48.9191 54.9736 49.6552 54.2377C50.4673 53.4255 50.8645 52.3102 50.7736 51.0972C50.6875 49.9495 50.1675 48.845 49.3095 47.9869C48.4514 47.1288 47.3469 46.6088 46.1992 46.5228C44.9853 46.4314 43.8708 46.8292 43.0588 47.6414ZM47.6702 49.6264C48.1359 50.0924 48.4172 50.6763 48.4617 51.2706C48.5014 51.7995 48.343 52.2711 48.0156 52.5984C47.6884 52.9256 47.2164 53.0834 46.688 53.0444C46.0936 52.9999 45.5097 52.7188 45.0438 52.2528C44.578 51.7869 44.2967 51.203 44.2522 50.6088C44.2125 50.0799 44.3709 49.6083 44.6983 49.2809C44.9925 48.9867 45.4033 48.8291 45.8678 48.8291C45.9198 48.8291 45.9727 48.8311 46.0259 48.835C46.6203 48.8794 47.2042 49.1605 47.6702 49.6264C47.67 49.6264 47.67 49.6264 47.6702 49.6264ZM61.2361 56.7138C62.3172 56.7138 63.302 56.3184 64.038 55.5825C65.6659 53.9545 65.5109 51.1505 63.6925 49.3317C61.8741 47.5131 59.0699 47.3583 57.4417 48.9861C55.8138 50.6141 55.9688 53.4181 57.7873 55.2367C58.6455 56.0949 59.75 56.6149 60.8977 56.7008C61.0116 56.7095 61.1244 56.7138 61.2361 56.7138ZM59.0813 50.6256C59.3883 50.3186 59.8047 50.1697 60.2525 50.1697C60.8605 50.1697 61.5263 50.4445 62.053 50.9713C62.9677 51.8859 63.1227 53.2192 62.3984 53.9433C62.0713 54.2703 61.5995 54.4288 61.0709 54.3892C60.4766 54.3447 59.8925 54.0636 59.4267 53.5977C58.5122 52.6828 58.3572 51.3497 59.0813 50.6256Z" fill="black"/>
</svg>
