<svg width="52" height="49" viewBox="0 0 52 49" fill="none" xmlns="http://www.w3.org/2000/svg">
<g clip-path="url(#clip0_10_123)">
<path d="M51.8599 39.9095L43.8511 26.8382C47.5569 22.3972 50.1489 16.131 49.1672 11.2183C48.2062 4.67896 41.6586 -0.352607 34.7189 0.0193326C31.4978 0.149947 28.5023 1.31562 25.9994 3.40277C23.8888 1.64728 21.3925 0.528489 18.7258 0.151382C15.945 -0.241992 13.1203 0.172625 10.5556 1.34969C10.0514 1.58106 9.84173 2.15385 10.0874 2.62894C10.3328 3.10403 10.9405 3.30153 11.4449 3.07016C15.1422 1.37332 20.7186 1.09219 25.2819 5.39241C25.6602 5.76301 26.3398 5.76301 26.7181 5.39241C31.9245 0.486195 38.6133 1.37303 42.6247 4.27363C52.5314 11.8495 45.1615 24.9982 35.0424 32.8555C31.7273 35.5294 28.2995 37.562 26 38.2273C23.7006 37.562 20.2728 35.5294 16.9577 32.8555C13.0258 29.6842 9.6825 26.0152 7.54363 22.5242C4.52465 17.5966 3.87129 12.6894 5.70431 8.70657C5.92741 8.22172 5.69121 7.65821 5.17668 7.44799C4.66224 7.23776 4.06423 7.46024 3.84103 7.94518C1.04078 13.5827 3.49161 21.2927 8.14895 26.8382L0.139963 39.9095C0.0565509 40.0457 0.01001 40.199 0.00445442 40.3561C-0.00110119 40.5132 0.0344996 40.6692 0.10811 40.8103C0.181721 40.9513 0.291074 41.0731 0.426504 41.1649C0.561934 41.2567 0.71927 41.3156 0.884605 41.3364L9.17761 42.383L14.2859 48.6273C14.3878 48.7518 14.5206 48.8507 14.6726 48.9153C14.8247 48.98 14.9913 49.0083 15.1577 48.9979C15.3241 48.9874 15.4853 48.9385 15.6269 48.8554C15.7685 48.7723 15.8862 48.6577 15.9696 48.5216L22.0344 38.6229C23.4079 39.3535 24.6701 39.8778 25.7372 40.1472C25.9094 40.1907 26.0906 40.1907 26.2628 40.1472C27.3299 39.8778 28.5922 39.3535 29.9656 38.6229L36.0305 48.5216C36.1139 48.6577 36.2316 48.7723 36.3732 48.8554C36.5148 48.9385 36.6759 48.9874 36.8424 48.9979C37.0088 49.0083 37.1754 48.98 37.3275 48.9153C37.4795 48.8507 37.6123 48.7518 37.7141 48.6273L42.8226 42.383L51.1155 41.3364C51.2808 41.3156 51.4382 41.2567 51.5737 41.165C51.7091 41.0732 51.8185 40.9514 51.8921 40.8103C51.9657 40.6693 52.0013 40.5132 51.9957 40.3561C51.99 40.199 51.9434 40.0456 51.8599 39.9095ZM14.9687 46.3273L10.5309 40.9026C10.3674 40.7027 10.1268 40.5719 9.86143 40.5384L2.6568 39.6293L9.50216 28.4569C12.413 31.7871 16.4582 35.2732 20.2997 37.6266L14.9687 46.3273ZM42.1385 40.5384C41.8731 40.5719 41.6325 40.7028 41.469 40.9026L37.0311 46.3274L31.7001 37.6266C35.5427 35.2724 39.5859 31.7882 42.4977 28.4569L49.3431 39.6293L42.1385 40.5384Z" fill="#FFDADA"/>
<path d="M12.9771 21.0504C11.6312 21.0975 11.6322 22.9176 12.9771 22.9642H16.0235C17.3694 22.9171 17.3683 21.097 16.0235 21.0504H15.5157V14.3523C15.5157 13.8238 15.061 13.3954 14.5003 13.3954H12.9772C11.6313 13.4425 11.6323 15.2626 12.9772 15.3092H13.4848V21.0504H12.9771ZM24.1472 20.0936V16.266C23.9935 12.462 18.2066 12.4649 18.0544 16.266V20.0936C18.208 23.8976 23.995 23.8947 24.1472 20.0936ZM20.0853 20.0936V16.266C20.1365 14.9981 22.0655 14.999 22.1163 16.266V20.0936C22.065 21.3616 20.1361 21.3607 20.0853 20.0936ZM28.7168 22.9642C30.3966 22.9642 31.7632 21.6764 31.7632 20.0936V16.266C31.6095 12.462 25.8226 12.4649 25.6704 16.266V20.0936C25.6704 21.6764 27.037 22.9642 28.7168 22.9642ZM27.7013 16.266C27.7525 14.9981 29.6815 14.999 29.7323 16.266V20.0936C29.681 21.3616 27.7521 21.3607 27.7013 20.0936V16.266ZM34.311 22.8413C34.7908 23.0981 35.4173 22.9413 35.6939 22.4765L40.2635 14.8214C40.5384 14.3608 40.365 13.7774 39.8763 13.5183C39.3876 13.2591 38.7684 13.4226 38.4934 13.8831L33.9238 21.5382C33.6487 21.9988 33.8221 22.5822 34.311 22.8413ZM34.8096 15.3092C36.1555 15.2621 36.1545 13.442 34.8096 13.3954H34.8089C33.4629 13.4427 33.4647 15.2627 34.8096 15.3092ZM39.3785 21.0503H39.3777C38.8169 21.0503 38.3626 21.4787 38.3626 22.0072C38.4126 23.2749 40.3443 23.275 40.3939 22.0072C40.3939 21.4787 39.9393 21.0503 39.3785 21.0503ZM7.30273 5.69651C8.64863 5.64943 8.64762 3.82935 7.30273 3.78275H7.30202C5.95623 3.83002 5.95795 5.6501 7.30273 5.69651Z" fill="#FFDADA"/>
</g>
<defs>
<clipPath id="clip0_10_123">
<rect width="52" height="49" fill="white"/>
</clipPath>
</defs>
</svg>
