<svg width="36" height="38" viewBox="0 0 36 38" fill="none" xmlns="http://www.w3.org/2000/svg">
<path d="M33.5584 22.6805H33.3473L33.9763 20.1145C34.7897 19.7399 35.3561 18.9175 35.3561 17.9648C35.3561 16.8146 34.5119 15.8386 33.4108 15.6374C32.8418 14.5137 31.6704 13.78 30.3944 13.78C29.1186 13.78 27.947 14.5138 27.378 15.6374C26.9233 15.7205 26.5127 15.9359 26.187 16.2409C25.8539 15.9273 25.4367 15.7174 24.9864 15.6368C24.4176 14.5136 23.2465 13.7802 21.9706 13.7802C21.458 13.7802 20.9624 13.8988 20.5159 14.1132V12.7209H21.3051C21.6126 12.7209 21.8618 12.4716 21.8618 12.1642C21.8618 11.8568 21.6126 11.6076 21.3051 11.6076H8.91801C8.23334 11.6076 7.6764 11.0507 7.6764 10.3661V10.0788C7.6764 10.0552 7.69562 10.036 7.71915 10.036H27.7982C27.8217 10.036 27.841 10.0552 27.841 10.0788V10.3661C27.841 11.0507 27.284 11.6076 26.5994 11.6076H24.0533C23.7458 11.6076 23.4966 11.8568 23.4966 12.1642C23.4966 12.4716 23.7458 12.7209 24.0533 12.7209H26.5995C27.898 12.7209 28.9544 11.6645 28.9544 10.3661V10.0788C28.9544 9.44129 28.4358 8.92273 27.7984 8.92273H24.9182L25.5526 6.33479C26.366 5.96021 26.9324 5.13779 26.9324 4.18505C26.9324 3.03488 26.0882 2.05883 24.9871 1.8577C24.4181 0.734023 23.2466 0.000371094 21.9707 0.000371094C20.6948 0.000371094 19.5233 0.734098 18.9542 1.85777C18.4995 1.94082 18.0888 2.15635 17.7632 2.46139C17.4301 2.14791 17.0131 1.93805 16.5628 1.8574C15.9941 0.733578 14.8229 0 13.5469 0C12.2707 0 11.0992 0.733949 10.5306 1.85799C9.42945 2.05898 8.58536 3.03488 8.58536 4.1852C8.58536 5.13787 9.15165 5.96029 9.96501 6.33502L10.5994 8.92273H7.71922C7.08176 8.92273 6.56319 9.44129 6.56319 10.0788V10.3661C6.56319 11.6645 7.61955 12.7209 8.91808 12.7209H15.0016V14.1132C14.5551 13.8987 14.0595 13.7801 13.5469 13.7801C12.2708 13.7801 11.0994 14.5137 10.5307 15.6373C10.0759 15.7203 9.66524 15.9357 9.33942 16.2408C9.00629 15.9273 8.58913 15.7173 8.13878 15.6367C7.56997 14.5136 6.39887 13.7802 5.12305 13.7802C3.84716 13.7802 2.67599 14.5135 2.10725 15.6369C1.74851 15.7013 1.40965 15.8483 1.11739 16.0661C1.0587 16.1096 1.00916 16.1643 0.971607 16.2271C0.934056 16.2898 0.909227 16.3593 0.898537 16.4316C0.887848 16.5039 0.891508 16.5776 0.909308 16.6485C0.927108 16.7194 0.9587 16.7861 1.00228 16.8448C1.04585 16.9035 1.10055 16.9531 1.16327 16.9906C1.22598 17.0282 1.29548 17.053 1.36779 17.0637C1.4401 17.0744 1.51381 17.0707 1.5847 17.0529C1.6556 17.0351 1.7223 17.0035 1.78098 16.9599C1.98852 16.8051 2.23916 16.7189 2.49801 16.7132C2.60874 16.7107 2.71619 16.6752 2.80663 16.6113C2.89706 16.5473 2.96636 16.4579 3.00567 16.3543C3.33742 15.4806 4.18827 14.8936 5.12298 14.8936C6.05769 14.8936 6.90861 15.4806 7.24029 16.3543C7.27962 16.4579 7.34895 16.5474 7.43941 16.6113C7.52987 16.6752 7.63735 16.7107 7.7481 16.7132C7.93553 16.7174 8.11962 16.7637 8.2867 16.8488C8.45377 16.9338 8.59953 17.0555 8.71316 17.2046C8.62858 17.4491 8.58536 17.706 8.58528 17.9647C8.58528 18.2315 8.63033 18.4879 8.71212 18.7273C8.59569 18.8801 8.44545 19.0039 8.27317 19.089C8.1009 19.174 7.91127 19.218 7.71915 19.2175C7.47453 19.2175 7.2374 19.1469 7.03337 19.0132C6.9407 18.9525 6.83201 18.9208 6.72123 18.9222C6.61044 18.9236 6.5026 18.958 6.41149 19.0211C6.03082 19.2846 5.58529 19.4238 5.12298 19.4238C4.66067 19.4238 4.21513 19.2846 3.83447 19.0211C3.74337 18.958 3.63552 18.9235 3.52473 18.9221C3.41394 18.9207 3.30525 18.9525 3.21259 19.0132C3.00911 19.1467 2.77099 19.2178 2.52762 19.2175C2.2008 19.2179 1.88687 19.0901 1.65325 18.8616C1.54709 18.7605 1.40532 18.7053 1.25874 18.7081C1.11216 18.7109 0.972603 18.7714 0.870372 18.8765C0.768142 18.9816 0.711496 19.1228 0.712737 19.2694C0.713978 19.416 0.773004 19.5562 0.876998 19.6595C1.07089 19.8485 1.29567 20.0029 1.54163 20.116L2.17026 22.6805H1.95911C1.23392 22.6805 0.643951 23.2708 0.643951 23.9964V24.2562C0.643951 25.8187 1.9148 27.0898 3.47688 27.0898H6.92798C6.74115 27.4061 6.643 27.7669 6.64387 28.1342C6.64387 29.1331 7.37782 30.1443 8.78055 30.1443C9.9135 30.1443 10.703 29.0969 10.703 28.157C10.703 27.8495 10.4538 27.6003 10.1463 27.6003C9.83884 27.6003 9.58969 27.8495 9.58969 28.157C9.58969 28.5528 9.22876 29.031 8.78055 29.031C8.07362 29.031 7.75715 28.5806 7.75715 28.1342C7.75715 27.8714 7.86358 27.6258 8.05685 27.4427C8.30028 27.212 8.67086 27.0901 9.12842 27.0901C12.4877 27.0901 14.7868 30.1851 15.3599 32.3881C14.9611 33.1145 14.2629 33.658 13.4006 33.8489L10.717 34.4426C9.67326 34.6732 8.80126 35.3984 8.38445 36.3825C8.32341 36.526 8.292 36.6804 8.29212 36.8364C8.29212 37.4781 8.81447 38.0001 9.45654 38.0001H13.451C13.7585 38.0001 14.0076 37.7509 14.0076 37.4435C14.0076 37.1361 13.7585 36.8869 13.451 36.8869H9.45654C9.41453 36.8869 9.4054 36.8464 9.4054 36.8364C9.4054 36.8295 9.40666 36.8235 9.40956 36.8167C9.54643 36.4945 9.75828 36.2095 10.0275 35.9857C10.2967 35.7618 10.6155 35.6054 10.9573 35.5296L13.6411 34.9359C15.5236 34.5191 16.8383 32.8817 16.8383 30.9538V29.5549C17.0252 29.5951 17.2158 29.6154 17.407 29.6154C17.5983 29.6154 17.7891 29.595 17.9761 29.5548V30.9539C17.9761 32.8817 19.2909 34.5192 21.1735 34.936L23.8578 35.5299C24.1995 35.6055 24.5181 35.7617 24.7872 35.9855C25.0562 36.2096 25.2679 36.4944 25.4048 36.8166C25.4079 36.8241 25.4153 36.8414 25.4002 36.8642C25.3852 36.8867 25.3662 36.8867 25.358 36.8867H16.1995C15.892 36.8867 15.6428 37.1359 15.6428 37.4434C15.6428 37.7508 15.892 38 16.1995 38H25.358C25.7493 38 26.1121 37.8052 26.3283 37.4789C26.5445 37.1526 26.5827 36.7429 26.4302 36.3825C26.2239 35.897 25.9049 35.4675 25.4997 35.1297C25.0937 34.7923 24.6131 34.5567 24.0977 34.4425L21.4141 33.8488C20.5515 33.6578 19.8532 33.1143 19.4545 32.3877C20.0278 30.1847 22.3268 27.0901 25.6859 27.0901C26.1435 27.0901 26.5141 27.2121 26.7575 27.4428C26.9508 27.6259 27.0573 27.8715 27.0573 28.1344C27.0573 28.5807 26.741 29.0311 26.0345 29.0311C25.5863 29.0311 25.2254 28.5529 25.2254 28.157C25.2254 27.8496 24.9763 27.6004 24.6688 27.6004C24.3613 27.6004 24.1121 27.8496 24.1121 28.157C24.1121 29.0971 24.9017 30.1444 26.0345 30.1444C27.4368 30.1444 28.1706 29.1332 28.1706 28.1344C28.1706 27.7603 28.0715 27.4031 27.8864 27.0898H32.0406C33.6027 27.0898 34.8736 25.8187 34.8736 24.2562V23.9964C34.8736 23.2708 34.2836 22.6805 33.5584 22.6805ZM20.3431 8.90105C20.292 8.9011 20.2423 8.88397 20.2022 8.8524C20.162 8.82084 20.1335 8.77667 20.1215 8.72701L19.5856 6.54097C19.8491 6.5179 20.1068 6.45061 20.3478 6.34192C20.8437 6.61445 21.3983 6.75717 21.9707 6.75717C22.5432 6.75717 23.0978 6.61452 23.5936 6.34192C23.8347 6.45064 24.0923 6.51794 24.3558 6.54097L23.8199 8.72694C23.8079 8.77661 23.7795 8.82079 23.7393 8.85237C23.6991 8.88395 23.6494 8.9011 23.5983 8.90105H20.3431ZM18.3888 6.33487L19.0232 8.9228H16.4943L17.1282 6.33732C17.3609 6.2313 17.5746 6.08792 17.761 5.91286C17.9464 6.08617 18.1584 6.22865 18.3888 6.33487ZM15.3961 8.72686C15.3841 8.77654 15.3557 8.82072 15.3155 8.8523C15.2753 8.88388 15.2256 8.90102 15.1745 8.90098H11.9193C11.8682 8.90103 11.8185 8.88389 11.7783 8.85233C11.7381 8.82076 11.7097 8.7766 11.6976 8.72694L11.1619 6.5412C11.4254 6.51813 11.6832 6.45068 11.9242 6.3417C12.4199 6.61423 12.9743 6.7568 13.5469 6.7568C14.1195 6.7568 14.674 6.61423 15.1695 6.3417C15.4106 6.45065 15.6684 6.5181 15.9319 6.5412L15.3961 8.72686ZM19.3454 2.93342C19.4561 2.93087 19.5635 2.89537 19.6539 2.83146C19.7443 2.76755 19.8136 2.67814 19.8529 2.57465C20.185 1.7008 21.036 1.11358 21.9706 1.11358C22.9053 1.11358 23.7563 1.70072 24.0883 2.57457C24.1276 2.67808 24.1969 2.7675 24.2873 2.83141C24.3777 2.89532 24.4851 2.93081 24.5958 2.93335C25.2703 2.94886 25.819 3.51032 25.819 4.18497C25.819 4.87565 25.257 5.43756 24.5664 5.43756C24.322 5.43756 24.085 5.36691 23.8811 5.23324C23.7884 5.17242 23.6796 5.14069 23.5687 5.14212C23.4578 5.14355 23.3498 5.17807 23.2587 5.24125C22.879 5.50451 22.4336 5.64367 21.9706 5.64367C21.5077 5.64367 21.0622 5.50451 20.6824 5.24125C20.5893 5.17664 20.4787 5.14205 20.3654 5.1421C20.2569 5.14206 20.1508 5.17377 20.0601 5.23331C19.8566 5.36689 19.6184 5.43792 19.375 5.43764C18.6843 5.43764 18.1224 4.87573 18.1224 4.18505C18.1223 3.51047 18.671 2.94893 19.3454 2.93342ZM10.9218 2.93372C11.0325 2.9312 11.14 2.89569 11.2305 2.83174C11.3209 2.76778 11.3903 2.6783 11.4296 2.57472C11.7612 1.70057 12.6121 1.11328 13.5469 1.11328C14.4817 1.11328 15.3326 1.70057 15.6641 2.57465C15.7034 2.67824 15.7728 2.76774 15.8632 2.83169C15.9537 2.89565 16.0612 2.93115 16.172 2.93364C16.3594 2.93782 16.5435 2.98415 16.7105 3.06918C16.8776 3.15421 17.0233 3.27576 17.137 3.42482C17.0524 3.66936 17.0091 3.92629 17.009 4.18505C17.009 4.45194 17.0541 4.70829 17.136 4.94779C17.0194 5.10063 16.869 5.22441 16.6966 5.30944C16.5243 5.39447 16.3345 5.43845 16.1423 5.43793C15.8981 5.43793 15.6615 5.3672 15.4582 5.23339C15.3654 5.17233 15.2564 5.14044 15.1454 5.14181C15.0343 5.14319 14.9262 5.17777 14.8349 5.24111C14.4569 5.50393 14.0074 5.64439 13.547 5.64352C13.0866 5.64439 12.637 5.50393 12.259 5.24111C12.1677 5.17779 12.0596 5.14322 11.9485 5.14184C11.8375 5.14047 11.7285 5.17235 11.6357 5.23339C11.4327 5.36711 11.1948 5.43824 10.9516 5.43793C10.2608 5.43793 9.69879 4.87595 9.69879 4.18512C9.69864 3.51047 10.2473 2.94901 10.9218 2.93372ZM8.70359 20.1172C8.93658 20.0111 9.15062 19.8675 9.33719 19.6922C9.52255 19.8657 9.73454 20.0082 9.96508 20.1145L10.5941 22.6805H8.07585L8.70359 20.1172ZM11.9193 22.6805C11.8681 22.6806 11.8185 22.6634 11.7783 22.6318C11.7381 22.6002 11.7097 22.5561 11.6976 22.5064L11.1619 20.3206C11.4253 20.2976 11.683 20.2303 11.9241 20.1215C12.4205 20.3943 12.975 20.537 13.5469 20.537C14.1187 20.537 14.6734 20.3943 15.1697 20.1215C15.4108 20.2302 15.6684 20.2975 15.9319 20.3206L15.3961 22.5063C15.3841 22.556 15.3557 22.6002 15.3155 22.6318C15.2753 22.6634 15.2256 22.6805 15.1745 22.6805H11.9193ZM17.1282 20.1166C17.3608 20.0106 17.5746 19.8672 17.7609 19.6922C17.9463 19.8656 18.1583 20.0081 18.3888 20.1144L19.0178 22.6804H16.4996L17.1282 20.1166ZM20.3431 22.6805C20.292 22.6806 20.2423 22.6634 20.2021 22.6318C20.1619 22.6002 20.1335 22.5561 20.1215 22.5064L19.5857 20.3206C19.8491 20.2976 20.1068 20.2303 20.3479 20.1215C20.8443 20.3943 21.3989 20.537 21.9707 20.537C22.5426 20.537 23.0972 20.3943 23.5935 20.1215C23.8346 20.2302 24.0923 20.2975 24.3557 20.3206L23.8199 22.5063C23.8079 22.556 23.7795 22.6002 23.7393 22.6318C23.6991 22.6634 23.6495 22.6805 23.5983 22.6805H20.3431ZM25.552 20.1166C25.7846 20.0106 25.9983 19.8673 26.1846 19.6923C26.3703 19.8659 26.5826 20.0086 26.8134 20.1149L27.4417 22.6805H24.9235L25.552 20.1166ZM28.7669 22.6805C28.7158 22.6806 28.6662 22.6634 28.626 22.6319C28.5858 22.6003 28.5574 22.5562 28.5454 22.5065L28.01 20.3206C28.2733 20.2974 28.5307 20.2302 28.7716 20.1215C29.2675 20.3941 29.8221 20.5368 30.3945 20.5368C30.9668 20.5368 31.5215 20.3941 32.0174 20.1215C32.2585 20.2302 32.5161 20.2976 32.7796 20.3206L32.2438 22.5063C32.2317 22.556 32.2033 22.6002 32.1631 22.6318C32.1229 22.6634 32.0733 22.6805 32.0222 22.6805H28.7669ZM27.7692 16.7132C27.8799 16.7106 27.9873 16.6751 28.0777 16.6112C28.1681 16.5473 28.2374 16.4579 28.2767 16.3544C28.6088 15.4805 29.4598 14.8933 30.3944 14.8933C31.329 14.8933 32.1801 15.4805 32.5121 16.3543C32.5514 16.4578 32.6207 16.5473 32.7111 16.6112C32.8015 16.6751 32.9089 16.7106 33.0196 16.7131C33.6941 16.7286 34.2427 17.2901 34.2427 17.9647C34.2427 18.6554 33.6808 19.2173 32.9901 19.2173C32.7457 19.2173 32.5088 19.1467 32.3049 19.013C32.2122 18.9522 32.1034 18.9205 31.9925 18.9219C31.8817 18.9233 31.7737 18.9578 31.6826 19.021C31.3028 19.2843 30.8573 19.4234 30.3944 19.4234C29.9315 19.4234 29.486 19.2843 29.1062 19.021C29.0151 18.9578 28.9072 18.9233 28.7964 18.9218C28.6855 18.9204 28.5767 18.9521 28.484 19.013C28.2805 19.1466 28.0422 19.2177 27.7987 19.2174C27.1081 19.2174 26.5461 18.6555 26.5461 17.9648C26.5461 17.2901 27.0948 16.7287 27.7692 16.7132ZM24.088 16.3542C24.1274 16.4578 24.1967 16.5473 24.2871 16.6112C24.3776 16.6752 24.4851 16.7107 24.5958 16.7132C24.7832 16.7174 24.9673 16.7637 25.1343 16.8487C25.3014 16.9337 25.4472 17.0553 25.5608 17.2044C25.4762 17.4489 25.4329 17.706 25.4328 17.9648C25.4328 18.2316 25.4778 18.488 25.5596 18.7274C25.443 18.8802 25.2927 19.0039 25.1203 19.0889C24.948 19.1739 24.7583 19.2179 24.5661 19.2174C24.3219 19.2174 24.0851 19.1467 23.8811 19.0131C23.7884 18.9523 23.6797 18.9207 23.5689 18.9221C23.4581 18.9235 23.3503 18.9579 23.2591 19.0209C22.8785 19.2844 22.4329 19.4237 21.9706 19.4237C21.5084 19.4237 21.0628 19.2845 20.6821 19.0209C20.591 18.9579 20.4831 18.9234 20.3723 18.922C20.2615 18.9206 20.1528 18.9523 20.0602 19.0131C19.8567 19.1466 19.6186 19.2176 19.3752 19.2174C18.6844 19.2174 18.1224 18.6554 18.1224 17.9646C18.1224 17.2899 18.6711 16.7285 19.3454 16.7131C19.4562 16.7106 19.5637 16.6751 19.6541 16.6112C19.7446 16.5472 19.8139 16.4577 19.8532 16.3542C20.185 15.4805 21.0358 14.8934 21.9706 14.8934C22.9053 14.8934 23.7563 15.4805 24.088 16.3542ZM19.4027 12.7209V14.9672C19.227 15.1718 19.0765 15.3968 18.9545 15.6374C18.4997 15.7203 18.0891 15.9358 17.7632 16.2409C17.4301 15.9273 17.013 15.7174 16.5626 15.6368C16.4407 15.3964 16.2904 15.1716 16.1148 14.9672V12.7209H19.4027ZM10.9217 16.7132C11.0324 16.7107 11.1399 16.6752 11.2304 16.6112C11.3208 16.5473 11.3902 16.4578 11.4295 16.3542C11.7613 15.4805 12.6121 14.8935 13.5468 14.8935C14.4815 14.8935 15.3324 15.4805 15.6641 16.3542C15.7034 16.4578 15.7728 16.5473 15.8632 16.6112C15.9537 16.6752 16.0612 16.7107 16.1719 16.7132C16.3594 16.7173 16.5434 16.7637 16.7105 16.8487C16.8776 16.9338 17.0234 17.0554 17.137 17.2045C17.0524 17.449 17.0092 17.7059 17.0091 17.9646C17.0091 18.2315 17.0542 18.4877 17.136 18.7272C17.0194 18.88 16.869 19.0038 16.6966 19.0889C16.5242 19.1739 16.3345 19.2179 16.1422 19.2174C15.8981 19.2174 15.6613 19.1467 15.4573 19.0131C15.3646 18.9523 15.2559 18.9207 15.1451 18.9221C15.0343 18.9235 14.9264 18.9579 14.8353 19.0209C14.4547 19.2844 14.009 19.4237 13.5468 19.4237C13.0846 19.4237 12.639 19.2845 12.2583 19.0209C12.1672 18.9579 12.0593 18.9234 11.9485 18.922C11.8377 18.9206 11.729 18.9523 11.6363 19.0131C11.4329 19.1466 11.1948 19.2176 10.9514 19.2174C10.2606 19.2174 9.69856 18.6554 9.69856 17.9646C9.69864 17.2899 10.2473 16.7285 10.9217 16.7132ZM3.50011 20.1216C3.99649 20.3943 4.55112 20.5371 5.12298 20.5371C5.69483 20.5371 6.24947 20.3943 6.74585 20.1216C6.98674 20.2302 7.24419 20.2975 7.5074 20.3206L6.97214 22.5064C6.9601 22.5561 6.9317 22.6003 6.8915 22.6319C6.8513 22.6635 6.80165 22.6806 6.75052 22.6806H3.49544C3.44432 22.6806 3.39467 22.6635 3.35448 22.6319C3.31428 22.6003 3.28587 22.5561 3.27382 22.5065L2.73803 20.3208C3.00144 20.2977 3.25907 20.2303 3.50011 20.1216ZM15.7251 30.3332C15.2996 29.5457 14.7443 28.7929 14.1043 28.1576C13.7494 27.8052 13.3092 27.429 12.7873 27.0898H14.7054C14.758 27.8734 15.1451 28.5664 15.7251 29.0274V30.3332ZM15.8117 26.9066C15.8117 26.0269 16.5274 25.3112 17.4071 25.3112C18.2867 25.3112 19.0024 26.0269 19.0024 26.9066C19.0024 27.7863 18.2867 28.502 17.4071 28.502C16.5274 28.502 15.8117 27.7863 15.8117 26.9066ZM20.71 28.1576C20.0701 28.7928 19.515 29.5454 19.0895 30.3327V29.027C19.6692 28.5661 20.0562 27.8732 20.1088 27.0898H22.027C21.5051 27.429 21.065 27.8052 20.71 28.1576ZM33.7603 24.2562C33.7603 25.2048 32.9889 25.9766 32.0406 25.9766H19.9512C19.571 24.9397 18.574 24.198 17.4071 24.198C16.2403 24.198 15.2432 24.9397 14.863 25.9766H3.47688C2.52866 25.9766 1.75723 25.2048 1.75723 24.2562V23.9964C1.75723 23.8847 1.84778 23.7938 1.95911 23.7938H33.5585C33.6698 23.7938 33.7604 23.8847 33.7604 23.9964V24.2562H33.7603Z" fill="#FFEFEF"/>
<path d="M5.33717 16.2934V16.2853C5.33717 15.9779 5.08802 15.7287 4.78053 15.7287C4.47305 15.7287 4.22389 15.9779 4.22389 16.2853V16.2934C4.22389 16.6008 4.47305 16.85 4.78053 16.85C5.08802 16.85 5.33717 16.6008 5.33717 16.2934ZM7.02973 17.5829V17.5748C7.02973 17.2674 6.78058 17.0182 6.47309 17.0182C6.1656 17.0182 5.91645 17.2674 5.91645 17.5748V17.5829C5.91645 17.8903 6.1656 18.1396 6.47309 18.1396C6.78058 18.1396 7.02973 17.8903 7.02973 17.5829ZM3.66837 17.587V17.5789C3.66837 17.2715 3.41921 17.0223 3.11172 17.0223C2.80424 17.0223 2.55508 17.2715 2.55508 17.5789V17.587C2.55508 17.8944 2.80424 18.1437 3.11172 18.1437C3.41921 18.1437 3.66837 17.8944 3.66837 17.587ZM13.2044 16.85C13.352 16.85 13.4936 16.7914 13.598 16.687C13.7024 16.5826 13.761 16.441 13.761 16.2934V16.2853C13.761 15.9779 13.5118 15.7287 13.2044 15.7287C12.8969 15.7287 12.6477 15.9779 12.6477 16.2853V16.2934C12.6477 16.441 12.7064 16.5826 12.8108 16.687C12.9151 16.7914 13.0567 16.85 13.2044 16.85ZM14.8969 18.1396C15.0446 18.1396 15.1861 18.0809 15.2905 17.9765C15.3949 17.8721 15.4536 17.7306 15.4536 17.5829V17.5748C15.4536 17.2674 15.2044 17.0182 14.8969 17.0182C14.5894 17.0182 14.3403 17.2674 14.3403 17.5748V17.5829C14.3403 17.7306 14.3989 17.8721 14.5033 17.9765C14.6077 18.0809 14.7493 18.1396 14.8969 18.1396ZM11.5355 18.1437C11.6831 18.1437 11.8247 18.085 11.9291 17.9806C12.0335 17.8762 12.0921 17.7346 12.0921 17.587V17.5789C12.0921 17.2715 11.843 17.0223 11.5355 17.0223C11.228 17.0223 10.9788 17.2715 10.9788 17.5789V17.587C10.9788 17.7346 11.0375 17.8762 11.1419 17.9806C11.2463 18.085 11.3878 18.1437 11.5355 18.1437ZM21.6281 16.85C21.7757 16.85 21.9173 16.7914 22.0217 16.687C22.1261 16.5826 22.1848 16.441 22.1848 16.2934V16.2853C22.1848 15.9779 21.9356 15.7287 21.6281 15.7287C21.3206 15.7287 21.0715 15.9779 21.0715 16.2853V16.2934C21.0715 16.441 21.1301 16.5826 21.2345 16.687C21.3389 16.7914 21.4805 16.85 21.6281 16.85ZM23.3207 18.1396C23.4683 18.1396 23.6099 18.0809 23.7143 17.9765C23.8187 17.8721 23.8773 17.7306 23.8773 17.5829V17.5748C23.8773 17.2674 23.6282 17.0182 23.3207 17.0182C23.0132 17.0182 22.764 17.2674 22.764 17.5748V17.5829C22.764 17.7306 22.8227 17.8721 22.9271 17.9765C23.0315 18.0809 23.173 18.1396 23.3207 18.1396ZM19.9593 17.0223C19.8117 17.0223 19.6701 17.0809 19.5657 17.1853C19.4613 17.2897 19.4027 17.4313 19.4027 17.5789V17.587C19.4027 17.8944 19.6518 18.1437 19.9593 18.1437C20.2668 18.1437 20.5159 17.8944 20.5159 17.587V17.5789C20.5159 17.2714 20.2668 17.0223 19.9593 17.0223ZM30.0519 16.85C30.1996 16.85 30.3412 16.7914 30.4455 16.687C30.5499 16.5826 30.6086 16.441 30.6086 16.2934V16.2853C30.6086 15.9779 30.3594 15.7287 30.0519 15.7287C29.7445 15.7287 29.4953 15.9779 29.4953 16.2853V16.2934C29.4953 16.441 29.5539 16.5826 29.6583 16.687C29.7627 16.7914 29.9043 16.85 30.0519 16.85ZM31.7445 18.1396C31.8921 18.1396 32.0337 18.0809 32.1381 17.9765C32.2425 17.8721 32.3011 17.7306 32.3011 17.5829V17.5748C32.3011 17.2674 32.052 17.0182 31.7445 17.0182C31.437 17.0182 31.1879 17.2674 31.1879 17.5748V17.5829C31.1879 17.7306 31.2465 17.8721 31.3509 17.9765C31.4553 18.0809 31.5969 18.1396 31.7445 18.1396ZM28.3831 18.1437C28.5307 18.1437 28.6723 18.085 28.7767 17.9806C28.8811 17.8762 28.9397 17.7346 28.9397 17.587V17.5789C28.9397 17.2715 28.6905 17.0223 28.3831 17.0223C28.0756 17.0223 27.8264 17.2715 27.8264 17.5789V17.587C27.8264 17.7346 27.8851 17.8762 27.9895 17.9806C28.0938 18.085 28.2354 18.1437 28.3831 18.1437ZM13.2044 3.07035C13.352 3.07035 13.4936 3.0117 13.598 2.90731C13.7024 2.80292 13.761 2.66134 13.761 2.51371V2.50562C13.761 2.1982 13.5118 1.94897 13.2044 1.94897C12.8969 1.94897 12.6477 2.1982 12.6477 2.50562V2.51371C12.6477 2.66134 12.7064 2.80292 12.8108 2.90731C12.9151 3.0117 13.0567 3.07035 13.2044 3.07035ZM14.8969 4.3599C15.0446 4.3599 15.1861 4.30125 15.2905 4.19686C15.3949 4.09247 15.4536 3.95089 15.4536 3.80326V3.79517C15.4536 3.48775 15.2044 3.23853 14.8969 3.23853C14.5894 3.23853 14.3403 3.48775 14.3403 3.79517V3.80326C14.3403 3.95089 14.3989 4.09247 14.5033 4.19686C14.6077 4.30125 14.7493 4.3599 14.8969 4.3599ZM11.5355 4.3639C11.6831 4.3639 11.8247 4.30526 11.9291 4.20087C12.0335 4.09648 12.0921 3.95489 12.0921 3.80726V3.79917C12.0921 3.49176 11.843 3.24253 11.5355 3.24253C11.228 3.24253 10.9788 3.49176 10.9788 3.79917V3.80726C10.9788 3.95489 11.0375 4.09648 11.1419 4.20087C11.2463 4.30526 11.3878 4.3639 11.5355 4.3639ZM21.6281 3.07035C21.7757 3.07035 21.9173 3.0117 22.0217 2.90731C22.1261 2.80292 22.1848 2.66134 22.1848 2.51371V2.50562C22.1848 2.1982 21.9356 1.94897 21.6281 1.94897C21.3206 1.94897 21.0715 2.1982 21.0715 2.50562V2.51371C21.0715 2.66134 21.1301 2.80292 21.2345 2.90731C21.3389 3.0117 21.4805 3.07035 21.6281 3.07035ZM23.3207 4.3599C23.4683 4.3599 23.6099 4.30125 23.7143 4.19686C23.8187 4.09247 23.8773 3.95089 23.8773 3.80326V3.79517C23.8773 3.48775 23.6282 3.23853 23.3207 3.23853C23.0132 3.23853 22.764 3.48775 22.764 3.79517V3.80326C22.764 3.95089 22.8227 4.09247 22.9271 4.19686C23.0315 4.30125 23.173 4.3599 23.3207 4.3599ZM19.9593 4.3639C20.1069 4.3639 20.2485 4.30526 20.3529 4.20087C20.4573 4.09648 20.5159 3.95489 20.5159 3.80726V3.79917C20.5159 3.49176 20.2668 3.24253 19.9593 3.24253C19.6518 3.24253 19.4027 3.49176 19.4027 3.79917V3.80726C19.4027 3.95489 19.4613 4.09648 19.5657 4.20087C19.6701 4.30526 19.8117 4.3639 19.9593 4.3639Z" fill="#FFEFEF"/>
</svg>
