<svg width="65" height="61" viewBox="0 0 65 61" fill="none" xmlns="http://www.w3.org/2000/svg">
<path d="M61.8661 30.915C61.7316 30.6722 61.6617 30.4051 61.6617 30.1344C61.6617 29.8637 61.7316 29.5966 61.8661 29.3538L64.3926 24.7554C65.7993 22.1951 64.6847 19.1434 61.8552 17.8078L56.7734 15.4088C56.5042 15.2827 56.2711 15.1032 56.0923 14.8842C55.9134 14.6653 55.7936 14.4126 55.7419 14.1459L54.748 9.10445C54.1946 6.29752 51.2762 4.41132 48.1052 4.81048L42.409 5.52734C42.1079 5.56607 41.8008 5.5427 41.5115 5.45904C41.2221 5.37537 40.9583 5.23366 40.7403 5.04484L36.6056 1.4862C34.3033 -0.495342 30.6967 -0.49546 28.3946 1.4862L24.2597 5.04519C24.0417 5.23397 23.7778 5.37565 23.4885 5.45931C23.1991 5.54297 22.8921 5.56636 22.591 5.52769L16.8948 4.81083C13.7228 4.41144 10.8054 6.29787 10.252 9.10481L9.2581 14.146C9.20644 14.4128 9.08658 14.6654 8.90776 14.8844C8.72894 15.1034 8.49595 15.2829 8.22678 15.4091L3.14491 17.808C0.315418 19.1435 -0.799126 22.1954 0.607549 24.7558L3.13393 29.354C3.26841 29.5969 3.33835 29.8639 3.33835 30.1346C3.33835 30.4053 3.26841 30.6724 3.13393 30.9152L0.607417 35.5135C-0.799259 38.0738 0.315286 41.1255 3.14478 42.4611L8.22665 44.8601C8.49585 44.9862 8.72887 45.1657 8.90771 45.3847C9.08656 45.6036 9.20644 45.8563 9.2581 46.123L10.252 51.1644C10.7558 53.7197 13.2185 55.5117 16.049 55.5115C16.3277 55.5115 16.6106 55.4941 16.8949 55.4583L22.5911 54.7414C22.8922 54.7027 23.1993 54.726 23.4887 54.8097C23.778 54.8934 24.0419 55.0351 24.2599 55.2239L28.3946 58.7826C29.5459 59.7735 31.0227 60.2688 32.5 60.2687C33.9769 60.2686 35.4547 59.7732 36.6055 58.7826L40.7403 55.2239C41.1864 54.8401 41.7945 54.6647 42.409 54.7414L48.1052 55.4583C51.2776 55.8576 54.1946 53.9713 54.748 51.1643L55.742 46.1231C55.7937 45.8564 55.9136 45.6037 56.0924 45.3848C56.2712 45.1658 56.5042 44.9862 56.7734 44.8601L61.8552 42.4611C64.6847 41.1256 65.7993 38.0737 64.3926 35.5134L61.8661 30.915ZM60.024 39.3904L54.9421 41.7894C53.3219 42.5544 52.2107 43.9149 51.8938 45.5223L50.8999 50.5636C50.8123 51.0188 50.5282 51.4254 50.1083 51.6968C49.6885 51.9682 49.166 52.0829 48.6524 52.0164L42.9563 51.2996C41.1397 51.0706 39.3422 51.5908 38.0238 52.7254L33.8889 56.2839C33.5173 56.6062 33.0189 56.7866 32.4999 56.7866C31.981 56.7866 31.4825 56.6062 31.1109 56.2839L26.9762 52.7253C25.862 51.7663 24.4053 51.2466 22.8845 51.2466C22.6059 51.2466 22.325 51.264 22.0437 51.2995L16.3476 52.0163C15.834 52.0827 15.3116 51.9679 14.8918 51.6965C14.4719 51.4251 14.1879 51.0186 14.1001 50.5635L13.1061 45.5221C12.7891 43.9146 11.678 42.554 10.0576 41.7892L4.97576 39.3903C4.51632 39.1755 4.1694 38.8095 4.009 38.3704C3.84861 37.9313 3.88745 37.4537 4.11723 37.0397L6.64374 32.4413C7.44922 30.9751 7.44922 29.2935 6.64374 27.8273L4.11723 23.2289C3.88745 22.8149 3.84861 22.3374 4.009 21.8983C4.1694 21.4591 4.51632 21.0931 4.97576 20.8784L10.0576 18.4794C11.6778 17.7144 12.7891 16.3539 13.106 14.7465L14.0998 9.70513C14.1875 9.25002 14.4715 8.84339 14.8914 8.57198C15.3113 8.30057 15.8337 8.18587 16.3473 8.25235L22.0435 8.9692C23.8594 9.19792 25.6575 8.67799 26.976 7.54337L31.1108 3.98474C31.4824 3.66244 31.9808 3.48206 32.4998 3.48206C33.0188 3.48206 33.5172 3.66244 33.8888 3.98474L38.0235 7.54337C39.3419 8.67811 41.1398 9.19792 42.956 8.9692L48.6522 8.25235C49.1657 8.18593 49.6882 8.30066 50.108 8.57206C50.5279 8.84345 50.8119 9.25005 50.8996 9.70513L51.8935 14.7466C52.2105 16.354 53.3216 17.7147 54.942 18.4794L60.0238 20.8784C60.4833 21.0931 60.8302 21.4591 60.9906 21.8983C61.151 22.3374 61.1122 22.8149 60.8824 23.2289L58.3559 27.8272C57.5504 29.2933 57.5504 30.9751 58.3559 32.4412L60.8824 37.0395C61.1122 37.4535 61.1511 37.9311 60.9907 38.3703C60.8304 38.8095 60.4835 39.1756 60.024 39.3904Z" fill="#FFEFEF"/>
<path d="M46.7737 17.4351C46.0109 16.7563 44.7739 16.7563 44.011 17.4351L18.226 40.3757C17.4632 41.0545 17.4632 42.1549 18.226 42.8337C18.4072 42.9953 18.6225 43.1235 18.8596 43.2108C19.0966 43.2982 19.3507 43.343 19.6073 43.3428C20.1072 43.3428 20.6073 43.1731 20.9886 42.8337L46.7735 19.8931C47.5367 19.2143 47.5367 18.1139 46.7737 17.4351ZM24.6859 14.4923C20.7363 14.4923 17.523 17.3511 17.523 20.865C17.523 24.3789 20.7363 27.2378 24.6859 27.2378C28.6355 27.2378 31.8488 24.3789 31.8488 20.865C31.8488 17.3511 28.6355 14.4923 24.6859 14.4923ZM24.6859 23.7617C22.8906 23.7617 21.4301 22.4622 21.4301 20.8649C21.4301 19.2677 22.8906 17.9683 24.6859 17.9683C26.4811 17.9683 27.9418 19.2677 27.9418 20.8649C27.9417 22.4622 26.4811 23.7617 24.6859 23.7617ZM40.3138 33.031C36.3642 33.031 33.1509 35.8899 33.1509 39.4038C33.1509 42.9177 36.3642 45.7765 40.3138 45.7765C44.2634 45.7765 47.4767 42.9177 47.4767 39.4038C47.4767 35.8899 44.2634 33.031 40.3138 33.031ZM40.3138 42.3004C38.5186 42.3004 37.0579 41.001 37.0579 39.4038C37.0579 37.8066 38.5184 36.5072 40.3138 36.5072C42.1091 36.5072 43.5696 37.8066 43.5696 39.4038C43.5696 41.001 42.1091 42.3004 40.3138 42.3004Z" fill="#FFEFEF"/>
</svg>
