<svg width="61" height="61" viewBox="0 0 61 61" fill="none" xmlns="http://www.w3.org/2000/svg">
<path d="M33.3913 41.5205C33.1543 41.5205 32.927 41.6146 32.7595 41.7822C32.5919 41.9498 32.4978 42.1771 32.4978 42.4141V42.5286C32.4978 43.022 32.8977 43.4221 33.3913 43.4221C33.8849 43.4221 34.2849 43.022 34.2849 42.5286V42.4141C34.2849 42.1771 34.1907 41.9498 34.0231 41.7822C33.8556 41.6146 33.6283 41.5205 33.3913 41.5205ZM27.0305 41.005C26.7935 41.005 26.5662 41.0991 26.3987 41.2667C26.2311 41.4343 26.137 41.6616 26.137 41.8985V42.0132C26.137 42.2501 26.2311 42.4774 26.3987 42.645C26.5662 42.8126 26.7935 42.9067 27.0305 42.9067C27.2675 42.9067 27.4948 42.8126 27.6624 42.645C27.8299 42.4774 27.9241 42.2501 27.9241 42.0132V41.8985C27.9241 41.6616 27.8299 41.4343 27.6624 41.2667C27.4948 41.0991 27.2675 41.005 27.0305 41.005ZM30.9626 44.9572C30.7256 44.9572 30.4984 45.0514 30.3308 45.219C30.1632 45.3865 30.0691 45.6138 30.0691 45.8508V45.9653C30.0691 46.2023 30.1632 46.4296 30.3308 46.5971C30.4984 46.7647 30.7256 46.8588 30.9626 46.8588C31.1996 46.8588 31.4269 46.7647 31.5945 46.5971C31.762 46.4296 31.8562 46.2023 31.8562 45.9653V45.8508C31.8562 45.6138 31.762 45.3865 31.5945 45.219C31.4269 45.0514 31.1996 44.9572 30.9626 44.9572ZM15.1502 46.0799C15.1502 46.3169 15.2443 46.5442 15.4119 46.7117C15.5795 46.8793 15.8067 46.9735 16.0437 46.9735C16.2807 46.9735 16.508 46.8793 16.6756 46.7117C16.8431 46.5442 16.9373 46.3169 16.9373 46.0799V45.9654C16.9373 45.7284 16.8431 45.5011 16.6756 45.3336C16.508 45.166 16.2807 45.0719 16.0437 45.0719C15.8067 45.0719 15.5795 45.166 15.4119 45.3336C15.2443 45.5011 15.1502 45.7284 15.1502 45.9654V46.0799ZM8.78937 41.8985V42.0132C8.78937 42.2501 8.88351 42.4774 9.05108 42.645C9.21866 42.8126 9.44594 42.9067 9.68292 42.9067C9.91991 42.9067 10.1472 42.8126 10.3148 42.645C10.4823 42.4774 10.5765 42.2501 10.5765 42.0132V41.8985C10.5765 41.6616 10.4823 41.4343 10.3148 41.2667C10.1472 41.0991 9.91991 41.005 9.68292 41.005C9.44594 41.005 9.21866 41.0991 9.05108 41.2667C8.88351 41.4343 8.78937 41.6616 8.78937 41.8985ZM17.2485 22.4957C19.2117 20.95 24.4131 19.9514 30.5 19.9514C36.5868 19.9514 41.7882 20.95 43.7514 22.4957C43.9087 22.6199 44.1033 22.6873 44.3036 22.6871C44.4894 22.6872 44.6707 22.6294 44.8221 22.5217C44.9735 22.4141 45.0876 22.2619 45.1484 22.0863C45.2093 21.9108 45.214 21.7206 45.1617 21.5423C45.1095 21.364 45.0029 21.2064 44.8569 21.0915C39.8921 17.1829 21.1076 17.1829 16.1431 21.0915C16.0501 21.1638 15.9722 21.2537 15.9141 21.3562C15.856 21.4587 15.8187 21.5717 15.8044 21.6886C15.7901 21.8055 15.7991 21.9242 15.8308 22.0376C15.8625 22.1511 15.9164 22.2572 15.9892 22.3497C16.0621 22.4423 16.1526 22.5196 16.2554 22.577C16.3583 22.6345 16.4715 22.6711 16.5885 22.6847C16.7055 22.6982 16.8241 22.6885 16.9374 22.6561C17.0506 22.6236 17.1564 22.5691 17.2485 22.4957ZM14.309 42.666C14.072 42.666 13.8448 42.7602 13.6772 42.9278C13.5096 43.0953 13.4155 43.3226 13.4155 43.5596V43.6742C13.4155 43.9112 13.5096 44.1385 13.6772 44.3061C13.8448 44.4736 14.072 44.5678 14.309 44.5678C14.546 44.5678 14.7733 44.4736 14.9409 44.3061C15.1084 44.1385 15.2026 43.9112 15.2026 43.6742V43.5596C15.2026 43.3226 15.1084 43.0953 14.9409 42.9278C14.7733 42.7602 14.546 42.666 14.309 42.666ZM50.7388 45.0719C50.5018 45.0719 50.2745 45.166 50.1069 45.3336C49.9394 45.5011 49.8452 45.7284 49.8452 45.9654V46.0799C49.8452 46.5734 50.2452 46.9735 50.7388 46.9735C51.2324 46.9735 51.6323 46.5734 51.6323 46.0799V45.9654C51.6323 45.7284 51.5382 45.5011 51.3706 45.3336C51.203 45.166 50.9758 45.0719 50.7388 45.0719Z" fill="#491717"/>
<path d="M59.5542 48.599V37.9463C59.5542 25.1357 49.2895 14.6561 36.482 14.1595V12.7434C36.482 9.72402 34.0061 7.26758 30.9625 7.26758C27.9191 7.26758 25.443 9.72402 25.443 12.7434V14.141C22.2258 14.1445 19.1035 14.7676 16.1619 15.9937C16.0536 16.0388 15.9552 16.1048 15.8724 16.188C15.7896 16.2711 15.724 16.3698 15.6793 16.4783C15.6347 16.5868 15.6118 16.7031 15.6121 16.8204C15.6123 16.9377 15.6357 17.0539 15.6808 17.1622C15.726 17.2705 15.792 17.3689 15.8751 17.4517C15.9583 17.5345 16.0569 17.6001 16.1654 17.6448C16.2739 17.6894 16.3902 17.7123 16.5075 17.712C16.6249 17.7118 16.741 17.6884 16.8493 17.6433C19.5799 16.5051 22.48 15.9281 25.469 15.9281H35.5306C47.7918 15.9281 57.7671 25.8055 57.7671 37.9463V48.5086H55.3544C55.5691 48.074 55.6805 47.5957 55.6799 47.1109V41.383C55.6799 39.6269 54.2415 38.1983 52.4733 38.1983H51.5407C51.6012 37.9296 51.6322 37.6534 51.6322 37.3735C51.6322 35.6188 50.4147 34.1412 48.7741 33.7298C49.021 30.8406 50.6147 28.5295 52.4735 28.5295C52.7104 28.5295 52.9377 28.4354 53.1053 28.2678C53.2729 28.1002 53.367 27.873 53.367 27.636C53.367 27.399 53.2729 27.1717 53.1053 27.0041C52.9377 26.8366 52.7104 26.7424 52.4735 26.7424C50.9299 26.7424 49.5048 27.5971 48.4602 29.1491C47.6176 30.401 47.1036 31.9993 46.9819 33.715C45.3106 34.1046 44.0626 35.5971 44.0626 37.3735C44.0626 37.6534 44.0936 37.9297 44.1541 38.1983H43.2215C41.4533 38.1983 40.0149 39.6269 40.0149 41.383V47.1109C40.0149 47.612 40.1319 48.0865 40.3404 48.5086H38.0069C38.2216 48.074 38.333 47.5957 38.3324 47.1109V41.383C38.3324 39.6269 36.894 38.1983 35.1259 38.1983H34.1932C34.2538 37.9296 34.2847 37.6534 34.2847 37.3735C34.2847 35.6188 33.0671 34.1412 31.4267 33.7298C31.6735 30.8406 33.2673 28.5295 35.126 28.5295C35.363 28.5295 35.5903 28.4354 35.7578 28.2678C35.9254 28.1002 36.0195 27.873 36.0195 27.636C36.0195 27.399 35.9254 27.1717 35.7578 27.0041C35.5903 26.8366 35.363 26.7424 35.126 26.7424C33.5824 26.7424 32.1574 27.5971 31.1127 29.1491C30.2702 30.401 29.756 31.9993 29.6343 33.715C27.9631 34.1046 26.7151 35.5971 26.7151 37.3735C26.7151 37.6534 26.7461 37.9297 26.8066 38.1983H25.8739C24.1058 38.1983 22.6673 39.6269 22.6673 41.383V47.1109C22.6673 47.612 22.7845 48.0865 22.993 48.5086H20.6595C20.8741 48.074 20.9855 47.5957 20.985 47.1109V41.383C20.985 39.6269 19.5464 38.1983 17.7784 38.1983H16.8457C16.9063 37.9296 16.9371 37.6534 16.9371 37.3735C16.9371 35.6188 15.7195 34.1412 14.0791 33.7298C14.3259 30.8406 15.9197 28.5295 17.7784 28.5295C18.0154 28.5295 18.2427 28.4354 18.4102 28.2678C18.5778 28.1002 18.672 27.873 18.672 27.636C18.672 27.399 18.5778 27.1717 18.4102 27.0041C18.2427 26.8366 18.0154 26.7424 17.7784 26.7424C16.2349 26.7424 14.8098 27.5971 13.7653 29.1491C12.9227 30.401 12.4085 31.9993 12.2869 33.715C10.6157 34.1046 9.36767 35.5971 9.36767 37.3735C9.36767 37.6534 9.39853 37.9297 9.45917 38.1983H8.52642C6.75837 38.1983 5.31987 39.6269 5.31987 41.383V47.1109C5.31987 47.612 5.43698 48.0865 5.64548 48.5086H3.23276V37.9463C3.23276 30.2425 7.38553 22.9969 14.0705 19.037C14.1725 18.9777 14.2617 18.8988 14.333 18.8049C14.4044 18.7109 14.4564 18.6038 14.4861 18.4896C14.5158 18.3755 14.5226 18.2566 14.5062 18.1398C14.4897 18.023 14.4503 17.9106 14.3901 17.8091C14.33 17.7076 14.2504 17.619 14.1559 17.5485C14.0614 17.4779 13.9538 17.4268 13.8394 17.398C13.725 17.3692 13.6061 17.3634 13.4894 17.3808C13.3727 17.3982 13.2607 17.4385 13.1597 17.4995C9.65551 19.5752 6.72096 22.5217 4.67329 26.0205C2.56176 29.6285 1.44565 33.7523 1.44565 37.9463V48.599C0.609285 48.8561 0 49.6324 0 50.5477V51.6933C0 52.8177 0.919647 53.7324 2.05005 53.7324H47.1536C47.3906 53.7324 47.6179 53.6383 47.7854 53.4707C47.953 53.3031 48.0471 53.0759 48.0471 52.8389C48.0471 52.6019 47.953 52.3746 47.7854 52.207C47.6179 52.0395 47.3906 51.9453 47.1536 51.9453H2.05005C1.90506 51.9453 1.78711 51.8324 1.78711 51.6933V50.5477C1.78711 50.4088 1.90506 50.2957 2.05005 50.2957H11.3019C11.5389 50.2957 11.7662 50.2015 11.9338 50.034C12.1013 49.8664 12.1955 49.6391 12.1955 49.4021C12.1955 49.1651 12.1013 48.9379 11.9338 48.7703C11.7662 48.6027 11.5389 48.5086 11.3019 48.5086H8.52642C7.74378 48.5086 7.10698 47.8815 7.10698 47.1109V41.383C7.10698 40.6124 7.74378 39.9854 8.52642 39.9854H17.7785C18.5612 39.9854 19.198 40.6124 19.198 41.383V47.1109C19.198 47.8815 18.5612 48.5086 17.7785 48.5086H14.7717C14.5347 48.5086 14.3074 48.6027 14.1398 48.7703C13.9722 48.9379 13.8781 49.1651 13.8781 49.4021C13.8781 49.6391 13.9722 49.8664 14.1398 50.034C14.3074 50.2015 14.5347 50.2957 14.7717 50.2957H58.9499C59.0949 50.2957 59.2129 50.4086 59.2129 50.5477V51.6933C59.2129 51.8322 59.0949 51.9453 58.9499 51.9453H50.6231C50.3861 51.9453 50.1588 52.0395 49.9912 52.207C49.8237 52.3746 49.7295 52.6019 49.7295 52.8389C49.7295 53.0759 49.8237 53.3031 49.9912 53.4707C50.1588 53.6383 50.3861 53.7324 50.6231 53.7324H58.9499C60.0804 53.7324 61 52.8178 61 51.6933V50.5477C61 49.6324 60.3907 48.8561 59.5542 48.599ZM34.6951 14.141H27.2302V12.7434C27.2302 10.7094 28.9046 9.05469 30.9626 9.05469C33.0207 9.05469 34.6951 10.7094 34.6951 12.7434V14.141ZM14.9674 38.1983H11.3374C11.2167 37.9401 11.1543 37.6585 11.1547 37.3735C11.1547 36.2869 12.0508 35.403 13.1524 35.403C14.254 35.403 15.1502 36.287 15.1502 37.3735C15.1505 37.6585 15.0881 37.9401 14.9674 38.1983ZM30.4999 35.403C31.6016 35.403 32.4976 36.287 32.4976 37.3735C32.4976 37.6612 32.4351 37.9414 32.3149 38.1983H28.685C28.5643 37.9401 28.5019 37.6585 28.5022 37.3735C28.5022 36.287 29.3984 35.4031 30.4999 35.403ZM36.5454 47.1109C36.5454 47.8815 35.9086 48.5086 35.126 48.5086H25.874C25.0914 48.5086 24.4546 47.8815 24.4546 47.1109V41.383C24.4546 40.6124 25.0914 39.9854 25.874 39.9854H35.126C35.9086 39.9854 36.5454 40.6124 36.5454 41.383V47.1109ZM47.8475 35.403C48.9492 35.403 49.8452 36.287 49.8452 37.3735C49.8452 37.6612 49.7827 37.9414 49.6625 38.1983H46.0326C45.9119 37.9401 45.8495 37.6585 45.8498 37.3735C45.8498 36.287 46.7458 35.403 47.8475 35.403ZM53.893 47.1109C53.893 47.8815 53.2562 48.5086 52.4736 48.5086H43.2216C42.439 48.5086 41.8022 47.8815 41.8022 47.1109V41.383C41.8022 40.6124 42.439 39.9854 43.2216 39.9854H52.4736C53.2562 39.9854 53.893 40.6124 53.893 41.383V47.1109Z" fill="#491717"/>
<path d="M49.8976 43.5596C49.8976 43.0661 49.4977 42.666 49.0041 42.666C48.5105 42.666 48.1105 43.0661 48.1105 43.5596V43.6742C48.1105 44.1677 48.5105 44.5678 49.0041 44.5678C49.4977 44.5678 49.8976 44.1677 49.8976 43.6742V43.5596Z" fill="#491717"/>
</svg>
