<svg width="20" height="20" viewBox="0 0 20 20" fill="none" xmlns="http://www.w3.org/2000/svg">
<g clip-path="url(#clip0_44_23)">
<path d="M18.8129 13.5758L14.1489 11.4998C14.049 11.4553 13.9378 11.4425 13.8304 11.4632C13.723 11.4838 13.6245 11.5369 13.5482 11.6153C13.2383 11.9333 12.5069 12.6793 12.0593 13.1188C11.1689 12.4938 10.2175 11.6721 9.28554 10.7218L9.27805 10.7143C8.34197 9.79633 7.55022 8.87836 6.92008 7.98044C7.46006 7.43529 8.41105 6.49667 8.42289 6.48497C8.50028 6.40861 8.55256 6.31048 8.57277 6.20366C8.59298 6.09684 8.58017 5.98639 8.53603 5.88704L6.46966 1.2328C6.41811 1.11661 6.32686 1.02259 6.21228 0.967572C6.0977 0.912556 5.96727 0.900144 5.84437 0.932563L2.25454 1.87842C1.16505 2.15561 0.633277 3.29635 0.969747 4.38836C2.00808 7.75906 3.50273 10.6327 6.42062 13.5904L6.42354 13.5933L6.4422 13.612L6.44512 13.6149C10.3005 17.4186 13.7786 18.4903 15.6472 19.0659C16.7283 19.3989 17.8769 18.8805 18.1572 17.7818L19.1123 14.2024C19.18 13.9483 19.0531 13.6826 18.8129 13.5758ZM17.1224 17.509L17.1207 17.5158C16.9947 18.0139 16.4594 18.1966 15.9622 18.0434C14.0563 17.4561 10.8666 16.4735 7.19802 12.8548L7.18087 12.8375C3.5619 9.16864 2.50184 5.72736 1.99221 4.0734C1.83896 3.57557 2.02199 3.04073 2.51982 2.91494C2.52146 2.91451 2.52313 2.91408 2.52481 2.91351L5.67663 2.08332L7.40824 5.98344C6.96534 6.42174 6.09834 7.28189 5.84298 7.55188C5.76013 7.6395 5.70931 7.75253 5.69876 7.87266C5.68822 7.99278 5.71856 8.11294 5.78488 8.21366C6.4907 9.28613 7.4127 10.3833 8.52515 11.4746C9.63221 12.603 10.7725 13.5632 11.8228 14.2513C11.9214 14.3159 12.0386 14.3461 12.1561 14.3373C12.2736 14.3285 12.3849 14.2811 12.4728 14.2026C12.7549 13.9501 13.6155 13.0762 14.0539 12.6285L17.9607 14.3677L17.1224 17.509ZM10.0001 1.97522C14.4446 1.97522 18.0605 5.5751 18.0605 9.99987C18.0605 10.2952 18.3 10.5349 18.5953 10.5349C18.8908 10.5349 19.1303 10.2952 19.1303 9.99987C19.1303 4.98509 15.0346 0.905243 10.0001 0.905243C9.70465 0.905243 9.46515 1.14474 9.46515 1.44023C9.46515 1.73572 9.70465 1.97522 10.0001 1.97522Z" fill="black"/>
<path d="M10.0001 4.11517C13.2449 4.11517 15.8848 6.75501 15.8848 9.99988C15.8848 10.2952 16.1243 10.5349 16.4198 10.5349C16.7152 10.5349 16.9548 10.2952 16.9548 9.99988C16.9548 6.16499 13.8349 3.0452 10.0001 3.0452C9.70464 3.0452 9.46515 3.28469 9.46515 3.58018C9.46515 3.87553 9.70464 4.11517 10.0001 4.11517Z" fill="black"/>
<path d="M10.0001 6.25497C12.065 6.25497 13.7449 7.9349 13.7449 9.99988C13.7449 10.2952 13.9844 10.5349 14.2799 10.5349C14.5754 10.5349 14.8149 10.2952 14.8149 9.99988C14.8149 7.34502 12.655 5.185 10.0001 5.185C9.70464 5.185 9.46515 5.42464 9.46515 5.71998C9.46515 6.01547 9.70464 6.25497 10.0001 6.25497Z" fill="black"/>
</g>
<defs>
<clipPath id="clip0_44_23">
<rect width="18.2609" height="18.2609" fill="white" transform="translate(0.869568 0.869568)"/>
</clipPath>
</defs>
</svg>
