<svg width="40" height="34" viewBox="0 0 40 34" fill="none" xmlns="http://www.w3.org/2000/svg">
<path d="M39.3876 1.29968C38.8994 0.700286 38.1666 0.370117 37.3241 0.370117C36.8696 0.370117 36.388 0.465277 35.8928 0.652862L2.02787 13.4838C0.227261 14.1662 -0.0150916 15.1933 0.000690241 15.7448C0.0163939 16.2936 0.314139 17.2979 2.12655 17.8776L9.30846 20.5095L13.0935 29.1736C13.474 30.3719 14.269 31.2126 15.2838 31.4853C15.5164 31.5477 15.7562 31.5793 15.9971 31.5791C16.8212 31.5791 17.6649 31.2162 18.3936 30.5318L21.5295 27.5856L29.181 32.852C29.8701 33.3613 30.6199 33.6302 31.351 33.6301C32.835 33.63 34.0185 32.5437 34.3663 30.8626L39.9048 4.07541C40.1324 2.97451 39.9487 1.98877 39.3876 1.29968ZM11.6886 20.1028L21.4617 14.8619L14.6505 21.1097C14.5313 21.2195 14.4361 21.3528 14.371 21.5012C14.306 21.6497 14.2724 21.81 14.2725 21.9721C14.2721 21.9841 14.2706 21.9958 14.2705 22.0079L14.247 25.959L11.6886 20.1028ZM16.7889 28.8234C16.7207 28.8878 16.6484 28.9477 16.5726 29.003L16.6013 24.1933L19.5538 26.2256L16.7889 28.8234ZM37.6095 3.60078L32.071 30.3879C32.0152 30.658 31.8331 31.2863 31.3508 31.2863C31.1256 31.2863 30.8462 31.1703 30.5642 30.9597C30.5521 30.9507 30.5398 30.9419 30.5274 30.9334L22.092 25.1273L22.0885 25.1249L17.3193 21.8422L29.9178 10.2859C30.1282 10.0929 30.2609 9.82972 30.291 9.5458C30.3211 9.26189 30.2465 8.97676 30.0813 8.74394C29.916 8.51113 29.6714 8.34664 29.3935 8.28137C29.1156 8.21611 28.8234 8.25455 28.5717 8.38948L10.0911 18.3L2.909 15.6681C2.90376 15.6662 2.8985 15.6643 2.89322 15.6624L36.7233 2.84466C37.0084 2.73661 37.2074 2.71395 37.3241 2.71395C37.382 2.71395 37.5218 2.72036 37.5701 2.77974C37.6321 2.85576 37.7101 3.11428 37.6095 3.60078Z" fill="#602121"/>
</svg>
