<svg width="53" height="54" viewBox="0 0 53 54" fill="none" xmlns="http://www.w3.org/2000/svg">
<path d="M4.02386 15.737H12.2117C12.6405 15.737 12.9881 15.3829 12.9881 14.946C12.9881 14.509 12.6405 14.155 12.2117 14.155H4.02386C3.5951 14.155 3.24749 14.509 3.24749 14.946C3.24749 15.3829 3.59499 15.737 4.02386 15.737ZM11.931 19.5452H8.69656C8.26779 19.5452 7.92019 19.8992 7.92019 20.3362C7.92019 20.7731 8.26779 21.1272 8.69656 21.1272H11.931C12.3598 21.1272 12.7074 20.7731 12.7074 20.3362C12.7074 19.8992 12.3598 19.5452 11.931 19.5452ZM0.776367 25.0306H8.69656C9.12532 25.0306 9.47292 24.6765 9.47292 24.2396C9.47292 23.8026 9.12532 23.4486 8.69656 23.4486H0.776367C0.347605 23.4486 0 23.8026 0 24.2396C0 24.6765 0.347605 25.0306 0.776367 25.0306ZM12.9881 39.0539C12.9881 38.8441 12.9063 38.6429 12.7607 38.4946C12.6151 38.3462 12.4176 38.2629 12.2117 38.2629H4.02386C3.5951 38.2629 3.24749 38.617 3.24749 39.0539C3.24749 39.4909 3.5951 39.8449 4.02386 39.8449H12.2117C12.4176 39.8449 12.6151 39.7616 12.7607 39.6133C12.9063 39.4649 12.9881 39.2637 12.9881 39.0539ZM11.931 32.8728H8.69656C8.26779 32.8728 7.92019 33.2269 7.92019 33.6638C7.92019 34.1008 8.26779 34.4548 8.69656 34.4548H11.931C12.3598 34.4548 12.7074 34.1008 12.7074 33.6638C12.7074 33.2269 12.3598 32.8728 11.931 32.8728ZM9.47292 29.7604C9.47292 29.5506 9.39113 29.3494 9.24553 29.2011C9.09993 29.0528 8.90246 28.9694 8.69656 28.9694H0.776367C0.347605 28.9694 0 29.3235 0 29.7604C0 30.1974 0.347605 30.5515 0.776367 30.5515H8.69656C8.90246 30.5515 9.09993 30.4681 9.24553 30.3198C9.39113 30.1714 9.47292 29.9702 9.47292 29.7604ZM33.0762 17.4899C33.5051 17.4899 33.8526 17.1358 33.8526 16.6989V15.4915C33.8526 15.0545 33.5051 14.7004 33.0762 14.7004C32.6474 14.7004 32.2999 15.0545 32.2999 15.4915V16.6989C32.2999 17.1358 32.6474 17.4899 33.0762 17.4899ZM41.6122 18.3028C41.4666 18.1545 41.2691 18.0712 41.0633 18.0712C40.8574 18.0712 40.6599 18.1545 40.5143 18.3028L39.6763 19.1566C39.5307 19.305 39.4489 19.5062 39.4489 19.716C39.4489 19.9258 39.5307 20.127 39.6763 20.2753C39.8219 20.4237 40.0194 20.507 40.2253 20.507C40.4312 20.507 40.6287 20.4237 40.7743 20.2753L41.6122 19.4215C41.7578 19.2732 41.8396 19.072 41.8396 18.8622C41.8396 18.6524 41.7578 18.4512 41.6122 18.3028ZM43.1866 26.209C42.7578 26.209 42.4102 26.563 42.4102 27C42.4102 27.437 42.7578 27.791 43.1866 27.791H44.3716C44.8004 27.791 45.1479 27.437 45.1479 27C45.1479 26.563 44.8004 26.209 44.3716 26.209H43.1866ZM40.7743 33.7246C40.7022 33.6511 40.6166 33.5929 40.5224 33.5531C40.4282 33.5134 40.3272 33.4929 40.2253 33.4929C40.1233 33.4929 40.0224 33.5134 39.9282 33.5531C39.834 33.5929 39.7484 33.6511 39.6763 33.7246C39.6042 33.798 39.547 33.8852 39.508 33.9812C39.469 34.0772 39.4489 34.1801 39.4489 34.2839C39.4489 34.3878 39.469 34.4907 39.508 34.5867C39.547 34.6826 39.6042 34.7698 39.6763 34.8433L40.5143 35.6971C40.6605 35.842 40.857 35.9225 41.061 35.9211C41.2651 35.9196 41.4604 35.8364 41.6047 35.6894C41.749 35.5423 41.8307 35.3434 41.8321 35.1354C41.8335 34.9275 41.7545 34.7274 41.6122 34.5784L40.7743 33.7246ZM32.2999 37.3011V38.5084C32.2999 38.9454 32.6474 39.2994 33.0762 39.2994C33.5051 39.2994 33.8526 38.9454 33.8526 38.5084V37.3011C33.8526 36.8642 33.5051 36.5101 33.0762 36.5101C32.6474 36.5101 32.2999 36.8643 32.2999 37.3011ZM25.3781 33.7246L24.5401 34.5784C24.3956 34.7269 24.3147 34.9278 24.3151 35.137C24.3156 35.3461 24.3973 35.5466 24.5425 35.6946C24.6877 35.8425 24.8844 35.9258 25.0898 35.9263C25.2951 35.9267 25.4922 35.8443 25.638 35.6971L26.476 34.8433C26.6205 34.6947 26.7014 34.4939 26.701 34.2847C26.7006 34.0755 26.6188 33.875 26.4736 33.7271C26.3285 33.5792 26.1317 33.4958 25.9264 33.4954C25.7211 33.4949 25.5239 33.5773 25.3781 33.7246ZM21.7808 26.209C21.3521 26.209 21.0045 26.563 21.0045 27C21.0045 27.437 21.3521 27.791 21.7808 27.791H22.9659C23.3946 27.791 23.7422 27.437 23.7422 27C23.7422 26.563 23.3946 26.209 22.9659 26.209H21.7808ZM26.4761 19.1566L25.6381 18.3028C25.4917 18.1586 25.2955 18.0788 25.0919 18.0806C24.8882 18.0823 24.6934 18.1655 24.5494 18.3123C24.4054 18.459 24.3237 18.6575 24.322 18.865C24.3203 19.0725 24.3987 19.2724 24.5402 19.4215L25.3782 20.2753C25.524 20.4226 25.7212 20.505 25.9265 20.5045C26.1318 20.5041 26.3286 20.4207 26.4737 20.2728C26.6189 20.1249 26.7007 19.9244 26.7011 19.7152C26.7015 19.506 26.6206 19.3052 26.4761 19.1566ZM37.251 27C37.251 26.563 36.9035 26.209 36.4747 26.209H33.8526V20.3361C33.8526 19.8991 33.5051 19.545 33.0762 19.545C32.6474 19.545 32.2999 19.8991 32.2999 20.3361V27C32.2999 27.437 32.6474 27.791 33.0762 27.791H36.4747C36.6806 27.791 36.878 27.7077 37.0236 27.5593C37.1692 27.411 37.251 27.2098 37.251 27Z" fill="#FFDADA"/>
<path d="M47.7974 26.8694C48.0029 26.8567 48.1951 26.7614 48.3316 26.6043C48.4681 26.4473 48.5378 26.2414 48.5253 26.032C48.0315 17.7313 41.2454 11.229 33.0761 11.229C24.5411 11.229 17.5972 18.3039 17.5972 27.0001C17.5972 35.6962 24.5411 42.7711 33.0761 42.7711C40.7227 42.7711 47.2474 37.0629 48.3825 29.36C48.3976 29.2572 48.3927 29.1525 48.3681 29.0517C48.3435 28.9509 48.2997 28.856 48.2391 28.7724C48.1785 28.6889 48.1023 28.6183 48.015 28.5648C47.9276 28.5112 47.8307 28.4757 47.7299 28.4603C47.6291 28.4449 47.5263 28.4499 47.4273 28.4749C47.3284 28.5 47.2353 28.5447 47.1533 28.6064C47.0713 28.6682 47.002 28.7458 46.9495 28.8348C46.8969 28.9238 46.8621 29.0225 46.8469 29.1252C45.8273 36.0454 39.9625 41.1891 33.0761 41.1891C25.3973 41.1891 19.15 34.824 19.15 27.0002C19.15 19.1764 25.3973 12.8112 33.0761 12.8112C40.4259 12.8112 46.5311 18.6606 46.9754 26.128C47.0013 26.5638 47.369 26.8947 47.7974 26.8694Z" fill="#FFDADA"/>
<path d="M33.0761 6.70033C30.3453 6.70033 27.6697 7.27756 25.2071 8.35703H11.509C11.0802 8.35703 10.7326 8.71109 10.7326 9.14804C10.7326 9.585 11.0802 9.93906 11.509 9.93906H22.2863C20.8168 10.9022 19.4781 12.0584 18.3049 13.3778C18.1678 13.5334 18.0969 13.7381 18.1075 13.9469C18.1182 14.1558 18.2096 14.3518 18.3617 14.4922C18.5138 14.6326 18.7143 14.7059 18.9194 14.696C19.1244 14.6862 19.3172 14.594 19.4558 14.4397C22.9341 10.5266 27.8986 8.28236 33.0761 8.28236C43.206 8.28236 51.4473 16.679 51.4473 27C51.4473 37.3209 43.2061 45.7176 33.0761 45.7176C22.9463 45.7176 14.7051 37.321 14.7051 27C14.7051 23.3858 15.7184 19.8779 17.6353 16.8554C17.7459 16.6792 17.7834 16.4656 17.7398 16.2612C17.6961 16.0569 17.5748 15.8785 17.4025 15.765C17.2301 15.6516 17.0206 15.6122 16.8198 15.6557C16.6191 15.6991 16.4434 15.8218 16.3311 15.9969C14.2515 19.2757 13.1524 23.0805 13.1524 27C13.1524 34.1472 16.7968 40.4428 22.2913 44.0609H11.5091C11.0803 44.0609 10.7327 44.415 10.7327 44.852C10.7327 45.2889 11.0803 45.643 11.5091 45.643H25.1964C27.6146 46.7081 30.2787 47.2997 33.0762 47.2997C44.0622 47.2997 53 38.1933 53 27C53 15.8067 44.0622 6.70033 33.0761 6.70033Z" fill="#FFDADA"/>
</svg>
