<svg width="277" height="277" viewBox="0 0 277 277" fill="none" xmlns="http://www.w3.org/2000/svg">
<path d="M184.248 138L267 55.1627C272.373 49.0562 275.219 41.133 274.959 33.0036C274.7 24.8741 271.354 17.1486 265.603 11.3973C259.851 5.646 252.126 2.30057 243.996 2.04102C235.867 1.78146 227.944 4.62727 221.837 9.99999L139 92.752L56.0134 9.74399C53.041 6.77156 49.5122 4.41371 45.6285 2.80504C41.7449 1.19638 37.5824 0.368408 33.3787 0.368408C29.1751 0.368408 25.0126 1.19638 21.1289 2.80504C17.2453 4.41371 13.7165 6.77156 10.7441 9.74399C7.77163 12.7164 5.41377 16.2452 3.80511 20.1289C2.19644 24.0125 1.36847 28.175 1.36847 32.3787C1.36847 36.5823 2.19644 40.7448 3.80511 44.6284C5.41377 48.5121 7.77163 52.0409 10.7441 55.0133L93.752 138L11.0001 220.816C7.75467 223.717 5.1353 227.25 3.30221 231.198C1.46911 235.146 0.46084 239.427 0.339063 243.778C0.217287 248.13 0.98457 252.46 2.59398 256.505C4.20338 260.549 6.62107 264.223 9.69912 267.301C12.7772 270.379 16.4509 272.797 20.4954 274.406C24.54 276.016 28.8704 276.783 33.2217 276.661C37.5731 276.539 41.8538 275.531 45.802 273.698C49.7503 271.865 53.283 269.245 56.1841 266L139 183.248L221.731 266C227.734 272.003 235.876 275.376 244.365 275.376C252.855 275.376 260.997 272.003 267 266C273.003 259.997 276.376 251.855 276.376 243.365C276.376 234.876 273.003 226.734 267 220.731L184.248 138Z" fill="#EDC8C8"/>
</svg>
