<svg width="45" height="29" viewBox="0 0 45 29" fill="none" xmlns="http://www.w3.org/2000/svg">
<path d="M43.8491 23.4375C41.8889 20.3519 39.595 17.4914 37.0087 14.9079C36.9617 14.8491 36.9361 14.7761 36.9361 14.7008C36.9361 14.6256 36.9617 14.5525 37.0087 14.4938C39.2342 11.4562 41.201 8.23733 42.8884 4.87098C43.1325 4.38928 43.2486 3.85286 43.2254 3.31333C43.2021 2.77381 43.0405 2.24933 42.7559 1.79036C42.4964 1.32387 42.117 0.93515 41.6569 0.664362C41.1969 0.393573 40.6729 0.250541 40.1391 0.250047H35.1703C34.5398 0.262281 33.9259 0.454249 33.4007 0.803388C32.8755 1.15253 32.4609 1.64433 32.2056 2.22098C30.7624 5.41285 29.0328 8.46732 27.0381 11.3469V3.2313C27.0403 2.83918 26.9647 2.45052 26.8157 2.08783C26.6666 1.72513 26.4471 1.39561 26.1698 1.11834C25.8926 0.841064 25.563 0.62155 25.2003 0.472507C24.8376 0.323463 24.449 0.24785 24.0569 0.250047H16.8025C16.3802 0.256613 15.9677 0.378403 15.6095 0.602271C15.2514 0.826138 14.9612 1.14358 14.7702 1.52032C14.5793 1.89707 14.4949 2.31881 14.5261 2.74002C14.5574 3.16123 14.7031 3.5659 14.9475 3.91036L15.61 4.83786C15.9654 5.3482 16.1561 5.95505 16.1566 6.57692V12.9369C13.9702 9.7025 12.2319 6.18692 10.9891 2.48598C10.7649 1.83383 10.3429 1.26787 9.78173 0.867054C9.22059 0.466236 8.54834 0.250539 7.85875 0.250047H3.80093C3.36978 0.255202 2.94536 0.357596 2.55929 0.549598C2.17321 0.7416 1.83545 1.01826 1.57117 1.35895C1.3069 1.69965 1.12292 2.0956 1.03295 2.51729C0.942979 2.93898 0.949341 3.37553 1.05156 3.79442C3.2875 13.2847 7.97468 21.1519 13.9206 25.3257C14.277 25.5788 14.7189 25.6808 15.1502 25.6095C15.5814 25.5381 15.967 25.2992 16.2228 24.9447C16.3507 24.7677 16.4424 24.5672 16.4925 24.3546C16.5426 24.142 16.5502 23.9216 16.5148 23.7061C16.4794 23.4906 16.4017 23.2842 16.2862 23.0988C16.1707 22.9135 16.0197 22.7528 15.8419 22.626C10.6412 18.9822 6.50062 12.0425 4.39718 3.56255H7.87531C9.39945 8.19324 11.6953 12.533 14.6659 16.3985C15.0093 16.8372 15.4821 17.1565 16.0173 17.3111C16.5525 17.4657 17.1228 17.4478 17.6472 17.2597C18.1852 17.0722 18.6507 16.7201 18.9776 16.2535C19.3046 15.7868 19.4765 15.2292 19.4691 14.6594V6.57692C19.4726 5.52405 19.2106 4.48729 18.7072 3.56255H23.6759V12.556C23.67 13.1995 23.876 13.8271 24.2621 14.3419C24.6482 14.8568 25.1931 15.2302 25.8125 15.4047C26.4135 15.6047 27.0636 15.6012 27.6624 15.3946C28.2612 15.188 28.7752 14.79 29.125 14.2619C31.4775 10.9057 33.4862 7.32117 35.1206 3.56255H39.7581C38.1795 6.66648 36.3574 9.64047 34.3091 12.4566C33.7925 13.1476 33.5418 14.0013 33.6026 14.8618C33.6634 15.7224 34.0317 16.5323 34.6403 17.1438C37.056 19.5781 39.2303 22.2405 41.1328 25.0938H35.5844C33.8727 22.2604 31.5742 19.8264 28.8434 17.9554C28.4337 17.6552 27.9481 17.4759 27.4416 17.4378C26.9351 17.3997 26.4281 17.5045 25.9781 17.74C25.5154 17.9768 25.1278 18.3378 24.8587 18.7824C24.5896 19.227 24.4496 19.7378 24.4544 20.2575V24.1994C24.4634 24.4295 24.3817 24.654 24.2268 24.8244C24.0719 24.9948 23.8562 25.0975 23.6262 25.1104H22.2019C21.7626 25.1104 21.3413 25.2849 21.0307 25.5955C20.7201 25.9061 20.5456 26.3273 20.5456 26.7666C20.5456 27.2059 20.7201 27.6271 21.0307 27.9378C21.3413 28.2484 21.7626 28.4229 22.2019 28.4229H23.6262C24.1758 28.4185 24.719 28.3057 25.2248 28.0909C25.7306 27.8761 26.1891 27.5636 26.5738 27.1712C26.9585 26.7788 27.2619 26.3142 27.4667 25.8043C27.6714 25.2943 27.7734 24.7489 27.7669 24.1994V21.2679C29.7592 22.7665 31.4459 24.6331 32.7356 26.7666C33.0204 27.2601 33.4276 27.6718 33.9179 27.9619C34.4082 28.252 34.9651 28.4108 35.5347 28.4229H41.1328C41.7052 28.4243 42.2674 28.2712 42.7601 27.9796C43.2528 27.6881 43.6576 27.2691 43.9319 26.7666C44.2132 26.2538 44.3538 25.6756 44.3392 25.0909C44.3247 24.5062 44.1555 23.9357 43.8491 23.4375Z" fill="#602121"/>
</svg>
