<svg width="39" height="38" viewBox="0 0 39 38" fill="none" xmlns="http://www.w3.org/2000/svg">
<path d="M19.4997 37.6994H19.492C16.4492 37.6982 13.4325 36.9983 10.729 35.6705L2.39522 37.5176C1.88678 37.6301 1.35411 37.4814 0.983988 37.1233C0.613869 36.7652 0.457641 36.2475 0.569537 35.7511L2.37534 27.7534C0.823875 24.9618 0.00479883 21.9044 0.000304688 18.8727C0 18.8623 0 18.8519 0 18.8417C0.00205664 13.8178 2.04118 9.08631 5.74115 5.51913C9.43282 1.96012 14.3189 0 19.4994 0C24.6916 0.00200391 29.5699 1.96383 33.2371 5.52381C36.9552 9.13329 39.0018 13.8684 39 18.8568C38.9985 22.6266 37.8384 26.27 35.6452 29.3926C35.17 30.0694 34.222 30.2424 33.5276 29.7794C32.8334 29.3164 32.6554 28.3928 33.1306 27.7161C34.9757 25.0888 35.9516 22.025 35.9531 18.8556C35.9546 14.6626 34.2265 10.6747 31.0867 7.62687C27.9944 4.62472 23.879 2.97046 19.4988 2.96875C10.4406 2.96875 3.06592 10.0746 3.04688 18.815C3.04688 18.8246 3.04718 18.8339 3.04718 18.8432C3.04596 21.5487 3.82703 24.2919 5.30552 26.7761C5.49684 27.0975 5.55746 27.477 5.47539 27.8398L4.06126 34.1035L10.5998 32.6542C10.9608 32.5745 11.3393 32.6253 11.6647 32.7971C14.0538 34.0609 16.7606 34.7295 19.4926 34.7306H19.4995C22.4699 34.7307 25.3852 33.9487 27.937 32.4672C28.6594 32.0471 29.5946 32.2776 30.0255 32.9818C30.4564 33.6861 30.22 34.5969 29.4973 35.0171C26.4736 36.7726 23.0193 37.6994 19.4995 37.6993L19.4997 37.6994ZM15.1972 11.2975C14.863 10.5762 14.5114 10.5515 14.1936 10.5391H13.3387C13.0412 10.5391 12.5579 10.6474 12.1494 11.0809C11.7406 11.5143 10.5882 12.5621 10.5882 14.6933C10.5882 16.8245 12.1866 18.884 12.4095 19.1734C12.6326 19.4621 15.4953 23.9753 20.0287 25.7116C23.7966 27.1545 24.5634 26.8675 25.381 26.795C26.1989 26.7231 28.0202 25.7475 28.3915 24.736C28.7635 23.7248 28.7635 22.8579 28.6519 22.6767C28.5407 22.4964 28.2431 22.388 27.7971 22.1714C27.3507 21.9548 25.1647 20.8889 24.7559 20.7444C24.347 20.6001 24.0497 20.5279 23.7522 20.9616C23.4547 21.3947 22.5787 22.3964 22.3184 22.6851C22.0583 22.9748 21.798 23.0107 21.3519 22.7942C20.9059 22.5768 19.4839 22.1114 17.7799 20.636C16.4537 19.4876 15.5337 18.0235 15.2734 17.5898C15.013 17.1567 15.2454 16.9219 15.4691 16.7059C15.6694 16.512 15.9405 16.2466 16.1636 15.9938C16.3862 15.7411 16.4499 15.5604 16.5983 15.2714C16.7471 14.9823 16.6727 14.7295 16.5614 14.5127C16.4499 14.2961 15.5935 12.1539 15.1969 11.2975" fill="#602121"/>
</svg>
