<svg width="49" height="48" viewBox="0 0 49 48" fill="none" xmlns="http://www.w3.org/2000/svg">
<g clip-path="url(#clip0_9_44)">
<path d="M19.221 28.0852C19.3118 28.2633 19.471 28.3987 19.6637 28.4617C19.8564 28.5247 20.0668 28.5102 20.2485 28.4213C20.4302 28.3323 20.5685 28.1763 20.6328 27.9876C20.6971 27.7988 20.6823 27.5928 20.5915 27.4148C20.3076 26.8689 19.8831 26.4052 19.3601 26.0694C18.837 25.7335 18.2336 25.5373 17.6094 25.5C16.9852 25.5373 16.3817 25.7335 15.8587 26.0694C15.3357 26.4052 14.9112 26.8689 14.6273 27.4148C14.5359 27.5925 14.5203 27.7985 14.584 27.9875C14.6477 28.1764 14.7854 28.3329 14.9668 28.4224C15.1483 28.5119 15.3586 28.5271 15.5515 28.4647C15.7444 28.4024 15.9041 28.2675 15.9954 28.0897C16.1529 27.7926 16.3823 27.5378 16.6637 27.3478C16.9451 27.1578 17.2699 27.0384 17.6094 27C17.9481 27.0381 18.2721 27.157 18.5531 27.3462C18.834 27.5354 19.0634 27.7891 19.221 28.0852ZM31.3906 25.5C30.7664 25.5373 30.163 25.7335 29.6399 26.0694C29.1169 26.4052 28.6925 26.8689 28.4085 27.4148C28.3171 27.5925 28.3016 27.7985 28.3653 27.9875C28.4289 28.1764 28.5666 28.3329 28.7481 28.4224C28.9295 28.5119 29.1398 28.5271 29.3327 28.4647C29.5256 28.4024 29.6853 28.2675 29.7767 28.0897C29.9341 27.7926 30.1636 27.5378 30.445 27.3478C30.7264 27.1578 31.0511 27.0384 31.3906 27C31.7301 27.0381 32.0549 27.1573 32.3363 27.3472C32.6177 27.5371 32.8472 27.7918 33.0046 28.089C33.0959 28.2667 33.2556 28.4016 33.4486 28.464C33.6415 28.5264 33.8518 28.5111 34.0332 28.4216C34.2146 28.3321 34.3523 28.1757 34.416 27.9867C34.4797 27.7977 34.4641 27.5917 34.3727 27.414C34.0887 26.8683 33.6642 26.4047 33.1412 26.069C32.6182 25.7333 32.0148 25.5372 31.3906 25.5Z" fill="#FFDADA"/>
<path d="M33.7457 13.5H33.6821C30.0385 13.5232 26.6874 15.6953 24.5 19.38C22.3126 15.6953 18.9615 13.5232 15.3179 13.5H15.2543C12.329 13.5574 9.54326 14.7363 7.49547 16.7835C6.32377 17.9249 5.39599 19.2836 4.76632 20.7802C4.13665 22.2768 3.81771 23.8813 3.82813 25.5C3.82813 36.5805 23.2957 47.4465 24.1248 47.9032C24.2393 47.9665 24.3686 47.9998 24.5 47.9998C24.6315 47.9998 24.7607 47.9665 24.8752 47.9032C25.7043 47.4457 45.1719 36.5805 45.1719 25.5C45.1823 23.8813 44.8634 22.2768 44.2337 20.7802C43.604 19.2836 42.6762 17.9249 41.5045 16.7835C39.4571 14.7358 36.6712 13.5568 33.7457 13.5ZM24.5 46.3822C21.7866 44.8117 5.35938 34.9118 5.35938 25.5C5.34961 24.0792 5.62894 22.6707 6.18105 21.3569C6.73316 20.043 7.54699 18.8501 8.575 17.8478C10.3348 16.0792 12.7322 15.0568 15.2528 15H15.3064C18.7548 15.0225 21.9313 17.3843 23.8048 21.3173C23.8664 21.4467 23.9644 21.5563 24.0873 21.633C24.2103 21.7098 24.3531 21.7506 24.4989 21.7506C24.6447 21.7506 24.7874 21.7098 24.9104 21.633C25.0333 21.5563 25.1313 21.4467 25.1929 21.3173C27.0671 17.3843 30.2437 15.0217 33.6913 15H33.7457C36.2668 15.0564 38.6648 16.0788 40.425 17.8478C41.453 18.8501 42.2668 20.043 42.819 21.3569C43.3711 22.6707 43.6504 24.0792 43.6406 25.5C43.6406 34.9118 27.2134 44.8117 24.5 46.3822Z" fill="#FFDADA"/>
<path d="M12.6734 17.3288C12.4682 17.43 7.65625 19.8345 7.65625 24C7.65625 24.1989 7.73691 24.3897 7.8805 24.5303C8.02408 24.671 8.21882 24.75 8.42188 24.75C8.62493 24.75 8.81967 24.671 8.96325 24.5303C9.10684 24.3897 9.1875 24.1989 9.1875 24C9.1875 20.7652 13.3173 18.69 13.3586 18.6705C13.5403 18.5815 13.6784 18.4254 13.7425 18.2367C13.8067 18.0479 13.7917 17.8419 13.7009 17.664C13.61 17.4861 13.4507 17.3508 13.258 17.2879C13.0653 17.225 12.855 17.2397 12.6734 17.3288ZM7.65625 26.25H9.1875V27.75H7.65625V26.25ZM31.9327 33.9712C31.7894 33.8303 31.5949 33.751 31.3919 33.7505C31.1889 33.7501 30.994 33.8287 30.8501 33.969C30.8218 33.9967 27.9545 36.75 24.5 36.75C21.0455 36.75 18.1782 33.9975 18.1499 33.969C18.0054 33.8325 17.812 33.757 17.6112 33.7589C17.4105 33.7607 17.2185 33.8397 17.0766 33.9789C16.9348 34.118 16.8544 34.3062 16.8528 34.5028C16.8512 34.6995 16.9285 34.8889 17.0681 35.0303C17.2021 35.1623 20.4016 38.25 24.5 38.25C25.0815 38.2469 25.661 38.1851 26.2295 38.0655L26.7992 39.1808C26.9648 39.5052 27.194 39.7946 27.4737 40.0323C27.7535 40.27 28.0783 40.4514 28.4296 40.5661C28.7809 40.6809 29.1519 40.7267 29.5213 40.701C29.8907 40.6753 30.2513 40.5786 30.5825 40.4164C30.9137 40.2542 31.2091 40.0296 31.4518 39.7556C31.6944 39.4815 31.8796 39.1634 31.9967 38.8192C32.1139 38.4751 32.1607 38.1117 32.1344 37.7498C32.1082 37.388 32.0095 37.0347 31.8439 36.7103L31.3102 35.6647C31.2962 35.6453 31.2811 35.6265 31.2651 35.6085C31.6624 35.2913 31.8975 35.064 31.9319 35.0303C32.0753 34.8899 32.1559 34.6995 32.156 34.5009C32.1562 34.3023 32.0758 34.1118 31.9327 33.9712ZM30.4742 37.3815C30.627 37.681 30.6521 38.0276 30.544 38.3452C30.4358 38.6628 30.2034 38.9253 29.8977 39.075C29.592 39.2247 29.2381 39.2493 28.9139 39.1434C28.5897 39.0374 28.3217 38.8097 28.1689 38.5103L27.7225 37.6365C27.8887 37.575 28.051 37.5112 28.2095 37.4437L28.4085 37.8353C28.4535 37.9234 28.5157 38.002 28.5916 38.0666C28.6676 38.1312 28.7558 38.1805 28.8512 38.2117C28.9466 38.2429 29.0474 38.2554 29.1477 38.2485C29.248 38.2415 29.346 38.2153 29.436 38.1712C29.526 38.1272 29.6062 38.0663 29.6722 37.9919C29.7381 37.9174 29.7884 37.8311 29.8203 37.7376C29.8521 37.6441 29.8649 37.5454 29.8578 37.4471C29.8507 37.3489 29.8239 37.2529 29.779 37.1647L29.573 36.762C29.7292 36.672 29.8777 36.582 30.0202 36.492L30.4742 37.3815ZM49 3.75C49 1.68225 47.6265 0 45.9375 0C44.2485 0 42.875 1.68225 42.875 3.75C42.8292 4.51156 43.0254 5.26831 43.4368 5.9161C43.8481 6.56389 44.4543 7.07086 45.1719 7.36725V12.75C45.1719 12.9489 45.2525 13.1397 45.3961 13.2803C45.5397 13.421 45.7344 13.5 45.9375 13.5C46.1406 13.5 46.3353 13.421 46.4789 13.2803C46.6225 13.1397 46.7031 12.9489 46.7031 12.75V7.36725C47.4207 7.07086 48.0269 6.56389 48.4382 5.9161C48.8496 5.26831 49.0458 4.51156 49 3.75ZM45.9375 6C45.1076 6 44.4062 4.9695 44.4062 3.75C44.4062 2.5305 45.1076 1.5 45.9375 1.5C46.7674 1.5 47.4688 2.5305 47.4688 3.75C47.4688 4.9695 46.7674 6 45.9375 6ZM37.5156 6.75V12.75C37.5156 12.9489 37.5963 13.1397 37.7399 13.2803C37.8835 13.421 38.0782 13.5 38.2812 13.5C38.4843 13.5 38.679 13.421 38.8226 13.2803C38.9662 13.1397 39.0469 12.9489 39.0469 12.75V6.75C39.6559 6.7494 40.2397 6.51216 40.6703 6.09033C41.101 5.6685 41.3431 5.09655 41.3438 4.5V0.75C41.3438 0.551088 41.2631 0.360322 41.1195 0.21967C40.9759 0.0790176 40.7812 0 40.5781 0C40.3751 0 40.1803 0.0790176 40.0367 0.21967C39.8932 0.360322 39.8125 0.551088 39.8125 0.75V4.5C39.8125 4.69891 39.7318 4.88968 39.5883 5.03033C39.4447 5.17098 39.2499 5.25 39.0469 5.25V0.75C39.0469 0.551088 38.9662 0.360322 38.8226 0.21967C38.679 0.0790176 38.4843 0 38.2812 0C38.0782 0 37.8835 0.0790176 37.7399 0.21967C37.5963 0.360322 37.5156 0.551088 37.5156 0.75V5.25C37.3126 5.25 37.1178 5.17098 36.9742 5.03033C36.8307 4.88968 36.75 4.69891 36.75 4.5V0.75C36.75 0.551088 36.6693 0.360322 36.5258 0.21967C36.3822 0.0790176 36.1874 0 35.9844 0C35.7813 0 35.5866 0.0790176 35.443 0.21967C35.2994 0.360322 35.2188 0.551088 35.2188 0.75V4.5C35.2194 5.09655 35.4615 5.6685 35.8922 6.09033C36.3228 6.51216 36.9066 6.7494 37.5156 6.75ZM3.82812 6C4.03118 6 4.22592 5.92098 4.3695 5.78033C4.51309 5.63968 4.59375 5.44891 4.59375 5.25V3.75C4.59375 3.55109 4.51309 3.36032 4.3695 3.21967C4.22592 3.07902 4.03118 3 3.82812 3C3.62507 3 3.43033 3.07902 3.28675 3.21967C3.14316 3.36032 3.0625 3.55109 3.0625 3.75V5.25C3.0625 5.44891 3.14316 5.63968 3.28675 5.78033C3.43033 5.92098 3.62507 6 3.82812 6ZM4.59375 9.75V8.25C4.59375 8.05109 4.51309 7.86032 4.3695 7.71967C4.22592 7.57902 4.03118 7.5 3.82812 7.5C3.62507 7.5 3.43033 7.57902 3.28675 7.71967C3.14316 7.86032 3.0625 8.05109 3.0625 8.25V9.75C3.0625 9.94891 3.14316 10.1397 3.28675 10.2803C3.43033 10.421 3.62507 10.5 3.82812 10.5C4.03118 10.5 4.22592 10.421 4.3695 10.2803C4.51309 10.1397 4.59375 9.94891 4.59375 9.75ZM5.35938 7.5H6.89062C7.09368 7.5 7.28842 7.42098 7.432 7.28033C7.57559 7.13968 7.65625 6.94891 7.65625 6.75C7.65625 6.55109 7.57559 6.36032 7.432 6.21967C7.28842 6.07902 7.09368 6 6.89062 6H5.35938C5.15632 6 4.96158 6.07902 4.818 6.21967C4.67441 6.36032 4.59375 6.55109 4.59375 6.75C4.59375 6.94891 4.67441 7.13968 4.818 7.28033C4.96158 7.42098 5.15632 7.5 5.35938 7.5ZM2.29688 6H0.765625C0.562569 6 0.367829 6.07902 0.224246 6.21967C0.0806638 6.36032 0 6.55109 0 6.75C0 6.94891 0.0806638 7.13968 0.224246 7.28033C0.367829 7.42098 0.562569 7.5 0.765625 7.5H2.29688C2.49993 7.5 2.69467 7.42098 2.83825 7.28033C2.98184 7.13968 3.0625 6.94891 3.0625 6.75C3.0625 6.55109 2.98184 6.36032 2.83825 6.21967C2.69467 6.07902 2.49993 6 2.29688 6ZM14.5469 10.5C15.0012 10.5 15.4452 10.368 15.8229 10.1208C16.2007 9.87357 16.4951 9.52217 16.6689 9.11104C16.8428 8.6999 16.8882 8.2475 16.7996 7.81105C16.711 7.37459 16.4922 6.97368 16.171 6.65901C15.8498 6.34434 15.4405 6.13005 14.995 6.04323C14.5494 5.95642 14.0876 6.00097 13.6679 6.17127C13.2482 6.34157 12.8895 6.62996 12.6371 6.99997C12.3847 7.36998 12.25 7.80499 12.25 8.25C12.2506 8.84655 12.4928 9.4185 12.9234 9.84033C13.354 10.2622 13.9379 10.4994 14.5469 10.5ZM14.5469 7.5C14.6983 7.5 14.8463 7.54399 14.9722 7.6264C15.0981 7.70881 15.1963 7.82594 15.2542 7.96299C15.3122 8.10003 15.3273 8.25083 15.2978 8.39632C15.2682 8.5418 15.1953 8.67544 15.0883 8.78033C14.9812 8.88522 14.8448 8.95665 14.6962 8.98559C14.5477 9.01453 14.3938 8.99968 14.2539 8.94291C14.114 8.88614 13.9944 8.79002 13.9103 8.66668C13.8262 8.54334 13.7812 8.39834 13.7812 8.25C13.7812 8.05109 13.8619 7.86032 14.0055 7.71967C14.1491 7.57902 14.3438 7.5 14.5469 7.5Z" fill="#FFDADA"/>
</g>
<defs>
<clipPath id="clip0_9_44">
<rect width="49" height="48" fill="white"/>
</clipPath>
</defs>
</svg>
